<svg xmlns="http://www.w3.org/2000/svg" viewBox="0 0 400 400" width="400" height="400">
  <defs><clipPath id="wsIceCone"><path d="M150 250 L250 250 L200 360 Z"></path></clipPath></defs>
  <path d="M150 250 L250 250 L200 360 Z" fill="#E8B26A" stroke="#3D3958" stroke-width="3" stroke-linejoin="round"></path>
  <g clip-path="url(#wsIceCone)" stroke="#C68A42" stroke-width="2.4" opacity="0.85"><line x1="130" y1="120" x2="290" y2="280"></line><line x1="130" y1="135" x2="290" y2="295"></line><line x1="130" y1="150" x2="290" y2="310"></line><line x1="130" y1="165" x2="290" y2="325"></line><line x1="130" y1="180" x2="290" y2="340"></line><line x1="130" y1="195" x2="290" y2="355"></line><line x1="130" y1="210" x2="290" y2="370"></line><line x1="130" y1="225" x2="290" y2="385"></line><line x1="130" y1="240" x2="290" y2="400"></line><line x1="130" y1="255" x2="290" y2="415"></line><line x1="130" y1="270" x2="290" y2="430"></line><line x1="130" y1="285" x2="290" y2="445"></line><line x1="130" y1="300" x2="290" y2="460"></line><line x1="130" y1="270" x2="290" y2="110"></line><line x1="130" y1="285" x2="290" y2="125"></line><line x1="130" y1="300" x2="290" y2="140"></line><line x1="130" y1="315" x2="290" y2="155"></line><line x1="130" y1="330" x2="290" y2="170"></line><line x1="130" y1="345" x2="290" y2="185"></line><line x1="130" y1="360" x2="290" y2="200"></line><line x1="130" y1="375" x2="290" y2="215"></line><line x1="130" y1="390" x2="290" y2="230"></line><line x1="130" y1="405" x2="290" y2="245"></line><line x1="130" y1="420" x2="290" y2="260"></line><line x1="130" y1="435" x2="290" y2="275"></line><line x1="130" y1="450" x2="290" y2="290"></line></g>
  <path d="M150 250 L250 250 L200 360 Z" fill="none" stroke="#3D3958" stroke-width="3" stroke-linejoin="round"></path>
  <path d="M150 250 Q200 264 250 250" fill="none" stroke="#3D3958" stroke-width="2.4" opacity="0.4"></path>
  <g class="hm-piece" data-piece="0">
    <circle cx="200" cy="158" r="36" fill="#A99BE6" stroke="#3D3958" stroke-width="3"></circle>
    <ellipse cx="188" cy="144" rx="11" ry="7" fill="#ffffff" opacity="0.4"></ellipse>
  </g>
  <g class="hm-piece" data-piece="1">
    <circle cx="176" cy="196" r="36" fill="#FBE7C6" stroke="#3D3958" stroke-width="3"></circle>
    <ellipse cx="164" cy="182" rx="11" ry="7" fill="#ffffff" opacity="0.4"></ellipse>
  </g>
  <g class="hm-piece" data-piece="2">
    <circle cx="224" cy="196" r="36" fill="#9EE6C5" stroke="#3D3958" stroke-width="3"></circle>
    <ellipse cx="212" cy="182" rx="11" ry="7" fill="#ffffff" opacity="0.4"></ellipse>
  </g>
  <g class="hm-piece" data-piece="3">
    <circle cx="158" cy="232" r="36" fill="#8B5A3C" stroke="#3D3958" stroke-width="3"></circle>
    <ellipse cx="146" cy="218" rx="11" ry="7" fill="#ffffff" opacity="0.4"></ellipse>
  </g>
  <g class="hm-piece" data-piece="4">
    <circle cx="200" cy="238" r="36" fill="#FF8FB1" stroke="#3D3958" stroke-width="3"></circle>
    <ellipse cx="188" cy="224" rx="11" ry="7" fill="#ffffff" opacity="0.4"></ellipse>
  </g>
  <g class="hm-piece" data-piece="5">
    <circle cx="242" cy="232" r="36" fill="#C3D86B" stroke="#3D3958" stroke-width="3"></circle>
    <ellipse cx="230" cy="218" rx="11" ry="7" fill="#ffffff" opacity="0.4"></ellipse>
  </g>
</svg>