<svg xmlns="http://www.w3.org/2000/svg" viewBox="0 0 400 400" width="400" height="400">
  <defs><clipPath id="ckCook"><circle cx="200" cy="200" r="140"></circle></clipPath><clipPath id="ckBand0" clip-rule="evenodd"><path d="M 474.91 205 L474.74 208.54 L468.93 211.73 L466.67 214.89 L471.17 218.79 L474.48 222.82 L470.46 225.69 L464.74 227.97 L465.46 231.56 L470.07 236.4 L469.6 239.96 L463.28 241.46 L459.61 243.65 L462.47 248.48 L464.99 253.46 L460.86 255.37 L454.48 255.84 L453.56 259.15 L456.65 265.07 L455.81 268.75 L449.52 268.59 L444.89 269.3 L445.92 274.42 L447.28 280.19 L443.26 281.31 L436.86 279.86 L434.55 282.26 L435.83 288.74 L434.44 292.56 L428.64 290.92 L423.65 289.86 L422.91 294.62 L422.81 300.83 L418.99 301.37 L413.18 298.1 L409.96 299.12 L409.32 305.55 L407.19 309.43 L402.23 306.62 L397.55 303.75 L395.32 307.54 L393.59 313.74 L389.95 313.87 L385.27 309.1 L381.74 308.49 L379.3 314.23 L376.27 317.97 L372.34 314.37 L368.6 309.87 L365.37 312.25 L362 317.91 L358.46 317.74 L355.27 311.93 L352.11 309.67 L348.21 314.17 L344.18 317.48 L341.31 313.46 L339.03 307.74 L335.44 308.46 L330.6 313.07 L327.04 312.6 L325.54 306.28 L323.35 302.61 L318.52 305.47 L313.54 307.99 L311.63 303.86 L311.16 297.48 L307.85 296.56 L301.93 299.65 L298.25 298.81 L298.41 292.52 L297.7 287.89 L292.58 288.92 L286.81 290.28 L285.69 286.26 L287.14 279.86 L284.74 277.55 L278.26 278.83 L274.44 277.44 L276.08 271.64 L277.14 266.65 L272.38 265.91 L266.17 265.81 L265.63 261.99 L268.9 256.18 L267.88 252.96 L261.45 252.32 L257.57 250.19 L260.38 245.23 L263.25 240.55 L259.46 238.32 L253.26 236.59 L253.13 232.95 L257.9 228.27 L258.51 224.74 L252.77 222.3 L249.03 219.27 L252.63 215.34 L257.13 211.6 L254.75 208.37 L249.09 205 L249.26 201.46 L255.07 198.27 L257.33 195.11 L252.83 191.21 L249.52 187.18 L253.54 184.31 L259.26 182.03 L258.54 178.44 L253.93 173.6 L254.4 170.04 L260.72 168.54 L264.39 166.35 L261.53 161.52 L259.01 156.54 L263.14 154.63 L269.52 154.16 L270.44 150.85 L267.35 144.93 L268.19 141.25 L274.48 141.41 L279.11 140.7 L278.08 135.58 L276.72 129.81 L280.74 128.69 L287.14 130.14 L289.45 127.74 L288.17 121.26 L289.56 117.44 L295.36 119.08 L300.35 120.14 L301.09 115.38 L301.19 109.17 L305.01 108.63 L310.82 111.9 L314.04 110.88 L314.68 104.45 L316.81 100.57 L321.77 103.38 L326.45 106.25 L328.68 102.46 L330.41 96.26 L334.05 96.13 L338.73 100.9 L342.26 101.51 L344.7 95.77 L347.73 92.03 L351.66 95.63 L355.4 100.13 L358.63 97.75 L362 92.09 L365.54 92.26 L368.73 98.07 L371.89 100.33 L375.79 95.83 L379.82 92.52 L382.69 96.54 L384.97 102.26 L388.56 101.54 L393.4 96.93 L396.96 97.4 L398.46 103.72 L400.65 107.39 L405.48 104.53 L410.46 102.01 L412.37 106.14 L412.84 112.52 L416.15 113.44 L422.07 110.35 L425.75 111.19 L425.59 117.48 L426.3 122.11 L431.42 121.08 L437.19 119.72 L438.31 123.74 L436.86 130.14 L439.26 132.45 L445.74 131.17 L449.56 132.56 L447.92 138.36 L446.86 143.35 L451.62 144.09 L457.83 144.19 L458.37 148.01 L455.1 153.82 L456.12 157.04 L462.55 157.68 L466.43 159.81 L463.62 164.77 L460.75 169.45 L464.54 171.68 L470.74 173.41 L470.87 177.05 L466.1 181.73 L465.49 185.26 L471.23 187.7 L474.97 190.73 L471.37 194.66 L466.87 198.4 L469.25 201.63 L474.91 205 Z"></path></clipPath><clipPath id="ckBand1" clip-rule="evenodd"><path d="M 517.55 205 L512.91 209.74 L508.42 214.21 L511.01 219.09 L515.83 224.43 L514.21 229.11 L507.74 232.8 L505.63 237.1 L509.67 242.91 L511.46 248.42 L506.13 251.83 L500.15 254.74 L500.68 259.91 L504.02 266.46 L501.81 270.79 L494.61 272.57 L490.77 275.79 L492.75 282.33 L493.43 288.41 L487.8 290.49 L480.94 291.41 L479.47 296.12 L480.95 303.4 L478.16 307.41 L470.86 307.23 L465.79 308.79 L465.6 315.33 L464.91 321.73 L459.3 322.62 L452.26 321.36 L449.12 324.91 L448.53 332.33 L445.14 336 L438.29 334 L432.67 333.54 L430.45 339.35 L428.21 345.7 L422.83 345.57 L416.33 342.22 L412.07 344.08 L409.43 350.98 L405.35 354.21 L399.41 350.69 L393.99 348.13 L390.15 352.56 L386.3 358.4 L381.26 357.45 L375.92 352.29 L371.26 352.17 L366.81 357.91 L362 360.55 L357.26 355.91 L352.79 351.42 L347.91 354.01 L342.57 358.83 L337.89 357.21 L334.2 350.74 L329.9 348.63 L324.09 352.67 L318.58 354.46 L315.17 349.13 L312.26 343.15 L307.09 343.68 L300.54 347.02 L296.21 344.81 L294.43 337.61 L291.21 333.77 L284.67 335.75 L278.59 336.43 L276.51 330.8 L275.59 323.94 L270.88 322.47 L263.6 323.95 L259.59 321.16 L259.77 313.86 L258.21 308.79 L251.67 308.6 L245.27 307.91 L244.38 302.3 L245.64 295.26 L242.09 292.12 L234.67 291.53 L231 288.14 L233 281.29 L233.46 275.67 L227.65 273.45 L221.3 271.21 L221.43 265.83 L224.78 259.33 L222.92 255.07 L216.02 252.43 L212.79 248.35 L216.31 242.41 L218.87 236.99 L214.44 233.15 L208.6 229.3 L209.55 224.26 L214.71 218.92 L214.83 214.26 L209.09 209.81 L206.45 205 L211.09 200.26 L215.58 195.79 L212.99 190.91 L208.17 185.57 L209.79 180.89 L216.26 177.2 L218.37 172.9 L214.33 167.09 L212.54 161.58 L217.87 158.17 L223.85 155.26 L223.32 150.09 L219.98 143.54 L222.19 139.21 L229.39 137.43 L233.23 134.21 L231.25 127.67 L230.57 121.59 L236.2 119.51 L243.06 118.59 L244.53 113.88 L243.05 106.6 L245.84 102.59 L253.14 102.77 L258.21 101.21 L258.4 94.67 L259.09 88.27 L264.7 87.38 L271.74 88.64 L274.88 85.09 L275.47 77.67 L278.86 74 L285.71 76 L291.33 76.46 L293.55 70.65 L295.79 64.3 L301.17 64.43 L307.67 67.78 L311.93 65.92 L314.57 59.02 L318.65 55.79 L324.59 59.31 L330.01 61.87 L333.85 57.44 L337.7 51.6 L342.74 52.55 L348.08 57.71 L352.74 57.83 L357.19 52.09 L362 49.45 L366.74 54.09 L371.21 58.58 L376.09 55.99 L381.43 51.17 L386.11 52.79 L389.8 59.26 L394.1 61.37 L399.91 57.33 L405.42 55.54 L408.83 60.87 L411.74 66.85 L416.91 66.32 L423.46 62.98 L427.79 65.19 L429.57 72.39 L432.79 76.23 L439.33 74.25 L445.41 73.57 L447.49 79.2 L448.41 86.06 L453.12 87.53 L460.4 86.05 L464.41 88.84 L464.23 96.14 L465.79 101.21 L472.33 101.4 L478.73 102.09 L479.62 107.7 L478.36 114.74 L481.91 117.88 L489.33 118.47 L493 121.86 L491 128.71 L490.54 134.33 L496.35 136.55 L502.7 138.79 L502.57 144.17 L499.22 150.67 L501.08 154.93 L507.98 157.57 L511.21 161.65 L507.69 167.59 L505.13 173.01 L509.56 176.85 L515.4 180.7 L514.45 185.74 L509.29 191.08 L509.17 195.74 L514.91 200.19 L517.55 205 Z M 469.91 205 L469.74 208.39 L463.94 211.41 L461.69 214.42 L466.21 218.17 L469.54 222.03 L465.55 224.75 L459.86 226.87 L460.62 230.32 L465.26 235 L464.84 238.42 L458.58 239.77 L454.96 241.81 L457.89 246.49 L460.47 251.33 L456.41 253.1 L450.1 253.44 L449.26 256.6 L452.43 262.39 L451.67 265.94 L445.47 265.65 L440.94 266.23 L442.07 271.24 L443.53 276.88 L439.62 277.89 L433.32 276.32 L431.12 278.61 L432.52 284.99 L431.25 288.71 L425.58 286.96 L420.71 285.81 L420.1 290.48 L420.14 296.61 L416.45 297.06 L410.77 293.72 L407.69 294.67 L407.19 301.03 L405.21 304.84 L400.39 301.97 L395.86 299.04 L393.77 302.78 L392.2 308.94 L388.71 309.03 L384.18 304.22 L380.8 303.58 L378.52 309.29 L375.65 313.01 L371.87 309.39 L368.28 304.88 L365.21 307.25 L362 312.91 L358.61 312.74 L355.59 306.94 L352.58 304.69 L348.83 309.21 L344.97 312.54 L342.25 308.55 L340.13 302.86 L336.68 303.62 L332 308.26 L328.58 307.84 L327.23 301.58 L325.19 297.96 L320.51 300.89 L315.67 303.47 L313.9 299.41 L313.56 293.1 L310.4 292.26 L304.61 295.43 L301.06 294.67 L301.35 288.47 L300.77 283.94 L295.76 285.07 L290.12 286.53 L289.11 282.62 L290.68 276.32 L288.39 274.12 L282.01 275.52 L278.29 274.25 L280.04 268.58 L281.19 263.71 L276.52 263.1 L270.39 263.14 L269.94 259.45 L273.28 253.77 L272.33 250.69 L265.97 250.19 L262.16 248.21 L265.03 243.39 L267.96 238.86 L264.22 236.77 L258.06 235.2 L257.97 231.71 L262.78 227.18 L263.42 223.8 L257.71 221.52 L253.99 218.65 L257.61 214.87 L262.12 211.28 L259.75 208.21 L254.09 205 L254.26 201.61 L260.06 198.59 L262.31 195.58 L257.79 191.83 L254.46 187.97 L258.45 185.25 L264.14 183.13 L263.38 179.68 L258.74 175 L259.16 171.58 L265.42 170.23 L269.04 168.19 L266.11 163.51 L263.53 158.67 L267.59 156.9 L273.9 156.56 L274.74 153.4 L271.57 147.61 L272.33 144.06 L278.53 144.35 L283.06 143.77 L281.93 138.76 L280.47 133.12 L284.38 132.11 L290.68 133.68 L292.88 131.39 L291.48 125.01 L292.75 121.29 L298.42 123.04 L303.29 124.19 L303.9 119.52 L303.86 113.39 L307.55 112.94 L313.23 116.28 L316.31 115.33 L316.81 108.97 L318.79 105.16 L323.61 108.03 L328.14 110.96 L330.23 107.22 L331.8 101.06 L335.29 100.97 L339.82 105.78 L343.2 106.42 L345.48 100.71 L348.35 96.99 L352.13 100.61 L355.72 105.12 L358.79 102.75 L362 97.09 L365.39 97.26 L368.41 103.06 L371.42 105.31 L375.17 100.79 L379.03 97.46 L381.75 101.45 L383.87 107.14 L387.32 106.38 L392 101.74 L395.42 102.16 L396.77 108.42 L398.81 112.04 L403.49 109.11 L408.33 106.53 L410.1 110.59 L410.44 116.9 L413.6 117.74 L419.39 114.57 L422.94 115.33 L422.65 121.53 L423.23 126.06 L428.24 124.93 L433.88 123.47 L434.89 127.38 L433.32 133.68 L435.61 135.88 L441.99 134.48 L445.71 135.75 L443.96 141.42 L442.81 146.29 L447.48 146.9 L453.61 146.86 L454.06 150.55 L450.72 156.23 L451.67 159.31 L458.03 159.81 L461.84 161.79 L458.97 166.61 L456.04 171.14 L459.78 173.23 L465.94 174.8 L466.03 178.29 L461.22 182.82 L460.58 186.2 L466.29 188.48 L470.01 191.35 L466.39 195.13 L461.88 198.72 L464.25 201.79 L469.91 205 Z"></path></clipPath><clipPath id="ckBand2" clip-rule="evenodd"><path d="M 550.28 205 L544.63 210.74 L544.71 216.5 L549.92 222.76 L551.04 228.88 L545.24 234.02 L540.63 239.08 L543.04 245.47 L546.55 252.38 L543.28 257.67 L536.12 261.57 L533.91 266.89 L537.04 274.3 L537.03 280.74 L530.37 284.23 L524.07 287.58 L524.08 294.1 L525.79 301.87 L521.77 306.39 L513.76 308.14 L509.57 312.22 L510.34 320.07 L509.03 326.63 L502 328.43 L494.67 329.59 L492.41 335.41 L492.06 343.5 L487.41 347.25 L479.25 346.74 L473.65 348.94 L472.03 356.44 L469.28 362.85 L462.31 363.06 L454.73 361.8 L450.61 366.19 L448.09 373.96 L442.9 376.92 L435.25 374.28 L429 374.21 L425.22 380.6 L420.97 386.48 L414.38 385.3 L407.36 381.68 L402.03 384.06 L397.46 390.87 L391.77 392.96 L385.18 388.51 L379.12 386.08 L373.68 390.7 L367.99 395.62 L362 393.28 L356.26 387.63 L350.5 387.71 L344.24 392.92 L338.12 394.04 L332.98 388.24 L327.92 383.63 L321.53 386.04 L314.62 389.55 L309.33 386.28 L305.43 379.12 L300.11 376.91 L292.7 380.04 L286.26 380.03 L282.77 373.37 L279.42 367.07 L272.9 367.08 L265.13 368.79 L260.61 364.77 L258.86 356.76 L254.78 352.57 L246.93 353.34 L240.37 352.03 L238.57 345 L237.41 337.67 L231.59 335.41 L223.5 335.06 L219.75 330.41 L220.26 322.25 L218.06 316.65 L210.56 315.03 L204.15 312.28 L203.94 305.31 L205.2 297.73 L200.81 293.61 L193.04 291.09 L190.08 285.9 L192.72 278.25 L192.79 272 L186.4 268.22 L180.52 263.97 L181.7 257.38 L185.32 250.36 L182.94 245.03 L176.13 240.46 L174.04 234.77 L178.49 228.18 L180.92 222.12 L176.3 216.68 L171.38 210.99 L173.72 205 L179.37 199.26 L179.29 193.5 L174.08 187.24 L172.96 181.12 L178.76 175.98 L183.37 170.92 L180.96 164.53 L177.45 157.62 L180.72 152.33 L187.88 148.43 L190.09 143.11 L186.96 135.7 L186.97 129.26 L193.63 125.77 L199.93 122.42 L199.92 115.9 L198.21 108.13 L202.23 103.61 L210.24 101.86 L214.43 97.78 L213.66 89.93 L214.97 83.37 L222 81.57 L229.33 80.41 L231.59 74.59 L231.94 66.5 L236.59 62.75 L244.75 63.26 L250.35 61.06 L251.97 53.56 L254.72 47.15 L261.69 46.94 L269.27 48.2 L273.39 43.81 L275.91 36.04 L281.1 33.08 L288.75 35.72 L295 35.79 L298.78 29.4 L303.03 23.52 L309.62 24.7 L316.64 28.32 L321.97 25.94 L326.54 19.13 L332.23 17.04 L338.82 21.49 L344.88 23.92 L350.32 19.3 L356.01 14.38 L362 16.72 L367.74 22.37 L373.5 22.29 L379.76 17.08 L385.88 15.96 L391.02 21.76 L396.08 26.37 L402.47 23.96 L409.38 20.45 L414.67 23.72 L418.57 30.88 L423.89 33.09 L431.3 29.96 L437.74 29.97 L441.23 36.63 L444.58 42.93 L451.1 42.92 L458.87 41.21 L463.39 45.23 L465.14 53.24 L469.22 57.43 L477.07 56.66 L483.63 57.97 L485.43 65 L486.59 72.33 L492.41 74.59 L500.5 74.94 L504.25 79.59 L503.74 87.75 L505.94 93.35 L513.44 94.97 L519.85 97.72 L520.06 104.69 L518.8 112.27 L523.19 116.39 L530.96 118.91 L533.92 124.1 L531.28 131.75 L531.21 138 L537.6 141.78 L543.48 146.03 L542.3 152.62 L538.68 159.64 L541.06 164.97 L547.87 169.54 L549.96 175.23 L545.51 181.82 L543.08 187.88 L547.7 193.32 L552.62 199.01 L550.28 205 Z M 512.55 205 L507.91 209.59 L503.43 213.9 L506.04 218.62 L510.87 223.81 L509.27 228.33 L502.83 231.87 L500.75 236.01 L504.83 241.67 L506.66 247.03 L501.37 250.28 L495.45 253.04 L496.03 258.07 L499.43 264.47 L497.28 268.66 L490.16 270.3 L486.39 273.38 L488.45 279.78 L489.21 285.73 L483.67 287.68 L476.89 288.48 L475.52 293.06 L477.09 300.21 L474.41 304.1 L467.22 303.81 L462.25 305.25 L462.18 311.68 L461.6 317.98 L456.11 318.76 L449.2 317.41 L446.18 320.87 L445.72 328.2 L442.46 331.78 L435.74 329.69 L430.26 329.16 L428.18 334.89 L426.08 341.17 L420.84 340.98 L414.49 337.57 L410.38 339.37 L407.89 346.22 L403.96 349.41 L398.16 345.85 L392.9 343.25 L389.21 347.65 L385.51 353.46 L380.63 352.49 L375.45 347.32 L370.95 347.18 L366.65 352.92 L362 355.55 L357.41 350.91 L353.1 346.43 L348.38 349.04 L343.19 353.87 L338.67 352.27 L335.13 345.83 L330.99 343.75 L325.33 347.83 L319.97 349.66 L316.72 344.37 L313.96 338.45 L308.93 339.03 L302.53 342.43 L298.34 340.28 L296.7 333.16 L293.62 329.39 L287.22 331.45 L281.27 332.21 L279.32 326.67 L278.52 319.89 L273.94 318.52 L266.79 320.09 L262.9 317.41 L263.19 310.22 L261.75 305.25 L255.32 305.18 L249.02 304.6 L248.24 299.11 L249.59 292.2 L246.13 289.18 L238.8 288.72 L235.22 285.46 L237.31 278.74 L237.84 273.26 L232.11 271.18 L225.83 269.08 L226.02 263.84 L229.43 257.49 L227.63 253.38 L220.78 250.89 L217.59 246.96 L221.15 241.16 L223.75 235.9 L219.35 232.21 L213.54 228.51 L214.51 223.63 L219.68 218.45 L219.82 213.95 L214.08 209.65 L211.45 205 L216.09 200.41 L220.57 196.1 L217.96 191.38 L213.13 186.19 L214.73 181.67 L221.17 178.13 L223.25 173.99 L219.17 168.33 L217.34 162.97 L222.63 159.72 L228.55 156.96 L227.97 151.93 L224.57 145.53 L226.72 141.34 L233.84 139.7 L237.61 136.62 L235.55 130.22 L234.79 124.27 L240.33 122.32 L247.11 121.52 L248.48 116.94 L246.91 109.79 L249.59 105.9 L256.78 106.19 L261.75 104.75 L261.82 98.32 L262.4 92.02 L267.89 91.24 L274.8 92.59 L277.82 89.13 L278.28 81.8 L281.54 78.22 L288.26 80.31 L293.74 80.84 L295.82 75.11 L297.92 68.83 L303.16 69.02 L309.51 72.43 L313.62 70.63 L316.11 63.78 L320.04 60.59 L325.84 64.15 L331.1 66.75 L334.79 62.35 L338.49 56.54 L343.37 57.51 L348.55 62.68 L353.05 62.82 L357.35 57.08 L362 54.45 L366.59 59.09 L370.9 63.57 L375.62 60.96 L380.81 56.13 L385.33 57.73 L388.87 64.17 L393.01 66.25 L398.67 62.17 L404.03 60.34 L407.28 65.63 L410.04 71.55 L415.07 70.97 L421.47 67.57 L425.66 69.72 L427.3 76.84 L430.38 80.61 L436.78 78.55 L442.73 77.79 L444.68 83.33 L445.48 90.11 L450.06 91.48 L457.21 89.91 L461.1 92.59 L460.81 99.78 L462.25 104.75 L468.68 104.82 L474.98 105.4 L475.76 110.89 L474.41 117.8 L477.87 120.82 L485.2 121.28 L488.78 124.54 L486.69 131.26 L486.16 136.74 L491.89 138.82 L498.17 140.92 L497.98 146.16 L494.57 152.51 L496.37 156.62 L503.22 159.11 L506.41 163.04 L502.85 168.84 L500.25 174.1 L504.65 177.79 L510.46 181.49 L509.49 186.37 L504.32 191.55 L504.18 196.05 L509.92 200.35 L512.55 205 Z"></path></clipPath><clipPath id="ckBand3" clip-rule="evenodd"><path d="M 579.96 205 L577.51 211.77 L581.89 218.83 L585.43 226.12 L581.52 232.73 L575.31 238.79 L575.3 245.69 L579.52 253.62 L578.82 260.67 L571.81 265.96 L566.95 271.59 L568.76 279.44 L570.58 287.58 L565.55 293.09 L557.68 297.08 L555.11 303.39 L556.92 312.16 L554.9 319.08 L546.93 322.36 L540.2 326.1 L539.33 333.84 L539.13 342.39 L533.28 346.7 L524.49 348.25 L519.72 353.11 L518.94 361.94 L515.54 368.5 L507.22 369.72 L499.35 371.03 L496.01 377.76 L493.63 386.17 L487.21 389.24 L478.29 388.24 L471.98 390.96 L468.67 399.04 L463.88 404.95 L455.74 404.2 L447.62 402.85 L442.29 407.8 L437.76 415.42 L430.97 417.25 L422.67 413.84 L415.67 414.02 L410.18 420.56 L404.06 425.48 L396.53 423 L389.04 419.04 L382.48 421.65 L376.02 427.85 L369.02 428.43 L362 422.96 L355.23 420.51 L348.17 424.89 L340.88 428.43 L334.27 424.52 L328.21 418.31 L321.31 418.3 L313.38 422.52 L306.33 421.82 L301.04 414.81 L295.41 409.95 L287.56 411.76 L279.42 413.58 L273.91 408.55 L269.92 400.68 L263.61 398.11 L254.84 399.92 L247.92 397.9 L244.64 389.93 L240.9 383.2 L233.16 382.33 L224.61 382.13 L220.3 376.28 L218.75 367.49 L213.89 362.72 L205.06 361.94 L198.5 358.54 L197.28 350.22 L195.97 342.35 L189.24 339.01 L180.83 336.63 L177.76 330.21 L178.76 321.29 L176.04 314.98 L167.96 311.67 L162.05 306.88 L162.8 298.74 L164.15 290.62 L159.2 285.29 L151.58 280.76 L149.75 273.97 L153.16 265.67 L152.98 258.67 L146.44 253.18 L141.52 247.06 L144 239.53 L147.96 232.04 L145.35 225.48 L139.15 219.02 L138.57 212.02 L144.04 205 L146.49 198.23 L142.11 191.17 L138.57 183.88 L142.48 177.27 L148.69 171.21 L148.7 164.31 L144.48 156.38 L145.18 149.33 L152.19 144.04 L157.05 138.41 L155.24 130.56 L153.42 122.42 L158.45 116.91 L166.32 112.92 L168.89 106.61 L167.08 97.84 L169.1 90.92 L177.07 87.64 L183.8 83.9 L184.67 76.16 L184.87 67.61 L190.72 63.3 L199.51 61.75 L204.28 56.89 L205.06 48.06 L208.46 41.5 L216.78 40.28 L224.65 38.97 L227.99 32.24 L230.37 23.83 L236.79 20.76 L245.71 21.76 L252.02 19.04 L255.33 10.96 L260.12 5.05 L268.26 5.8 L276.38 7.15 L281.71 2.2 L286.24 -5.42 L293.03 -7.25 L301.33 -3.84 L308.33 -4.02 L313.82 -10.56 L319.94 -15.48 L327.47 -13 L334.96 -9.04 L341.52 -11.65 L347.98 -17.85 L354.98 -18.43 L362 -12.96 L368.77 -10.51 L375.83 -14.89 L383.12 -18.43 L389.73 -14.52 L395.79 -8.31 L402.69 -8.3 L410.62 -12.52 L417.67 -11.82 L422.96 -4.81 L428.59 0.05 L436.44 -1.76 L444.58 -3.58 L450.09 1.45 L454.08 9.32 L460.39 11.89 L469.16 10.08 L476.08 12.1 L479.36 20.07 L483.1 26.8 L490.84 27.67 L499.39 27.87 L503.7 33.72 L505.25 42.51 L510.11 47.28 L518.94 48.06 L525.5 51.46 L526.72 59.78 L528.03 67.65 L534.76 70.99 L543.17 73.37 L546.24 79.79 L545.24 88.71 L547.96 95.02 L556.04 98.33 L561.95 103.12 L561.2 111.26 L559.85 119.38 L564.8 124.71 L572.42 129.24 L574.25 136.03 L570.84 144.33 L571.02 151.33 L577.56 156.82 L582.48 162.94 L580 170.47 L576.04 177.96 L578.65 184.52 L584.85 190.98 L585.43 197.98 L579.96 205 Z M 545.28 205 L539.63 210.58 L539.72 216.18 L544.94 222.29 L546.08 228.25 L540.3 233.24 L535.72 238.14 L538.16 244.38 L541.71 251.14 L538.48 256.27 L531.36 260.03 L529.2 265.2 L532.39 272.46 L532.44 278.76 L525.85 282.1 L519.61 285.31 L519.7 291.69 L521.49 299.32 L517.55 303.72 L509.63 305.33 L505.53 309.28 L506.39 317 L505.18 323.45 L498.25 325.12 L491.03 326.16 L488.88 331.88 L488.64 339.85 L484.11 343.5 L476.07 342.88 L470.59 344.99 L469.09 352.4 L466.47 358.72 L459.63 358.84 L452.19 357.5 L448.2 361.8 L445.82 369.51 L440.77 372.39 L433.27 369.69 L427.16 369.57 L423.52 375.89 L419.42 381.72 L412.99 380.5 L406.12 376.84 L400.93 379.18 L396.52 385.95 L390.99 388.02 L384.56 383.55 L378.65 381.1 L373.37 385.71 L367.83 390.62 L362 388.28 L356.42 382.63 L350.82 382.72 L344.71 387.94 L338.75 389.08 L333.76 383.3 L328.86 378.72 L322.62 381.16 L315.86 384.71 L310.73 381.48 L306.97 374.36 L301.8 372.2 L294.54 375.39 L288.24 375.44 L284.9 368.85 L281.69 362.61 L275.31 362.7 L267.68 364.49 L263.28 360.55 L261.67 352.63 L257.72 348.53 L250 349.39 L243.55 348.18 L241.88 341.25 L240.84 334.03 L235.12 331.88 L227.15 331.64 L223.5 327.11 L224.12 319.07 L222.01 313.59 L214.6 312.09 L208.28 309.47 L208.16 302.63 L209.5 295.19 L205.2 291.2 L197.49 288.82 L194.61 283.77 L197.31 276.27 L197.43 270.16 L191.11 266.52 L185.28 262.42 L186.5 255.99 L190.16 249.12 L187.82 243.93 L181.05 239.52 L178.98 233.99 L183.45 227.56 L185.9 221.65 L181.29 216.37 L176.38 210.83 L178.72 205 L184.37 199.42 L184.28 193.82 L179.06 187.71 L177.92 181.75 L183.7 176.76 L188.28 171.86 L185.84 165.62 L182.29 158.86 L185.52 153.73 L192.64 149.97 L194.8 144.8 L191.61 137.54 L191.56 131.24 L198.15 127.9 L204.39 124.69 L204.3 118.31 L202.51 110.68 L206.45 106.28 L214.37 104.67 L218.47 100.72 L217.61 93 L218.82 86.55 L225.75 84.88 L232.97 83.84 L235.12 78.12 L235.36 70.15 L239.89 66.5 L247.93 67.12 L253.41 65.01 L254.91 57.6 L257.53 51.28 L264.37 51.16 L271.81 52.5 L275.8 48.2 L278.18 40.49 L283.23 37.61 L290.73 40.31 L296.84 40.43 L300.48 34.11 L304.58 28.28 L311.01 29.5 L317.88 33.16 L323.07 30.82 L327.48 24.05 L333.01 21.98 L339.44 26.45 L345.35 28.9 L350.63 24.29 L356.17 19.38 L362 21.72 L367.58 27.37 L373.18 27.28 L379.29 22.06 L385.25 20.92 L390.24 26.7 L395.14 31.28 L401.38 28.84 L408.14 25.29 L413.27 28.52 L417.03 35.64 L422.2 37.8 L429.46 34.61 L435.76 34.56 L439.1 41.15 L442.31 47.39 L448.69 47.3 L456.32 45.51 L460.72 49.45 L462.33 57.37 L466.28 61.47 L474 60.61 L480.45 61.82 L482.12 68.75 L483.16 75.97 L488.88 78.12 L496.85 78.36 L500.5 82.89 L499.88 90.93 L501.99 96.41 L509.4 97.91 L515.72 100.53 L515.84 107.37 L514.5 114.81 L518.8 118.8 L526.51 121.18 L529.39 126.23 L526.69 133.73 L526.57 139.84 L532.89 143.48 L538.72 147.58 L537.5 154.01 L533.84 160.88 L536.18 166.07 L542.95 170.48 L545.02 176.01 L540.55 182.44 L538.1 188.35 L542.71 193.63 L547.62 199.17 L545.28 205 Z"></path></clipPath><clipPath id="ckBand4" clip-rule="evenodd"><path d="M 612.7 205 L615.22 212.96 L620.33 221.25 L619.11 229.3 L612.55 236.65 L609.9 244.26 L613.58 252.99 L615.35 261.63 L609.74 268.61 L602.9 274.99 L602.47 283.13 L605.22 292.56 L602.48 300.21 L594.22 305.49 L588.92 311.78 L589.71 321.02 L589.48 330.06 L582.63 335.48 L573.99 339.53 L570.73 346.85 L570.81 356.71 L566.62 363.72 L557.36 366.62 L550.03 370.77 L547.88 379.56 L545.5 388.5 L537.83 392.24 L528.23 393.55 L522.6 399.13 L519.92 408.59 L514.37 414.71 L504.82 415.15 L496.28 416.59 L491.52 424 L486.94 432.27 L478.84 434.31 L469.17 432.75 L461.91 435.88 L456.67 444.12 L449.87 449.08 L440.69 447.18 L431.92 445.67 L425.14 450.9 L418.53 457.89 L410.31 458.27 L401.44 454 L393.49 454.27 L386.15 460.52 L378.3 464.03 L370.02 460.08 L362 455.7 L354.04 458.22 L345.75 463.33 L337.7 462.11 L330.35 455.55 L322.74 452.9 L314.01 456.58 L305.37 458.35 L298.39 452.74 L292.01 445.9 L283.87 445.47 L274.44 448.22 L266.79 445.48 L261.51 437.22 L255.22 431.92 L245.98 432.71 L236.94 432.48 L231.52 425.63 L227.47 416.99 L220.15 413.73 L210.29 413.81 L203.28 409.62 L200.38 400.36 L196.23 393.03 L187.44 390.88 L178.5 388.5 L174.76 380.83 L173.45 371.23 L167.87 365.6 L158.41 362.92 L152.29 357.37 L151.85 347.82 L150.41 339.28 L143 334.52 L134.73 329.94 L132.69 321.84 L134.25 312.17 L131.12 304.91 L122.88 299.67 L117.92 292.87 L119.82 283.69 L121.33 274.92 L116.1 268.14 L109.11 261.53 L108.73 253.31 L113 244.44 L112.73 236.49 L106.48 229.15 L102.97 221.3 L106.92 213.02 L111.3 205 L108.78 197.04 L103.67 188.75 L104.89 180.7 L111.45 173.35 L114.1 165.74 L110.42 157.01 L108.65 148.37 L114.26 141.39 L121.1 135.01 L121.53 126.87 L118.78 117.44 L121.52 109.79 L129.78 104.51 L135.08 98.22 L134.29 88.98 L134.52 79.94 L141.37 74.52 L150.01 70.47 L153.27 63.15 L153.19 53.29 L157.38 46.28 L166.64 43.38 L173.97 39.23 L176.12 30.44 L178.5 21.5 L186.17 17.76 L195.77 16.45 L201.4 10.87 L204.08 1.41 L209.63 -4.71 L219.18 -5.15 L227.72 -6.59 L232.48 -14 L237.06 -22.27 L245.16 -24.31 L254.83 -22.75 L262.09 -25.88 L267.33 -34.12 L274.13 -39.08 L283.31 -37.18 L292.08 -35.67 L298.86 -40.9 L305.47 -47.89 L313.69 -48.27 L322.56 -44 L330.51 -44.27 L337.85 -50.52 L345.7 -54.03 L353.98 -50.08 L362 -45.7 L369.96 -48.22 L378.25 -53.33 L386.3 -52.11 L393.65 -45.55 L401.26 -42.9 L409.99 -46.58 L418.63 -48.35 L425.61 -42.74 L431.99 -35.9 L440.13 -35.47 L449.56 -38.22 L457.21 -35.48 L462.49 -27.22 L468.78 -21.92 L478.02 -22.71 L487.06 -22.48 L492.48 -15.63 L496.53 -6.99 L503.85 -3.73 L513.71 -3.81 L520.72 0.38 L523.62 9.64 L527.77 16.97 L536.56 19.12 L545.5 21.5 L549.24 29.17 L550.55 38.77 L556.13 44.4 L565.59 47.08 L571.71 52.63 L572.15 62.18 L573.59 70.72 L581 75.48 L589.27 80.06 L591.31 88.16 L589.75 97.83 L592.88 105.09 L601.12 110.33 L606.08 117.13 L604.18 126.31 L602.67 135.08 L607.9 141.86 L614.89 148.47 L615.27 156.69 L611 165.56 L611.27 173.51 L617.52 180.85 L621.03 188.7 L617.08 196.98 L612.7 205 Z M 574.96 205 L572.51 211.62 L576.9 218.52 L580.45 225.65 L576.56 232.11 L570.37 238 L570.39 244.75 L574.64 252.53 L573.98 259.43 L567.01 264.56 L562.2 270.05 L564.06 277.75 L565.93 285.74 L560.96 291.1 L553.16 294.95 L550.65 301.12 L552.54 309.75 L550.59 316.53 L542.71 319.68 L536.06 323.29 L535.29 330.9 L535.18 339.33 L529.43 343.51 L520.74 344.94 L516.08 349.69 L515.4 358.4 L512.12 364.86 L503.91 365.96 L496.16 367.18 L492.94 373.81 L490.69 382.12 L484.4 385.1 L475.61 384.02 L469.43 386.66 L466.26 394.65 L461.61 400.49 L453.61 399.68 L445.63 398.26 L440.45 403.15 L436.06 410.72 L429.42 412.5 L421.28 409.04 L414.42 409.18 L409.09 415.68 L403.12 420.57 L395.75 418.06 L388.41 414.08 L382.01 416.67 L375.71 422.86 L368.86 423.44 L362 417.96 L355.38 415.51 L348.48 419.9 L341.35 423.45 L334.89 419.56 L329 413.37 L322.25 413.39 L314.47 417.64 L307.57 416.98 L302.44 410.01 L296.95 405.2 L289.25 407.06 L281.26 408.93 L275.9 403.96 L272.05 396.16 L265.88 393.65 L257.25 395.54 L250.47 393.59 L247.32 385.71 L243.71 379.06 L236.1 378.29 L227.67 378.18 L223.49 372.43 L222.06 363.74 L217.31 359.08 L208.6 358.4 L202.14 355.12 L201.04 346.91 L199.82 339.16 L193.19 335.94 L184.88 333.69 L181.9 327.4 L182.98 318.61 L180.34 312.43 L172.35 309.26 L166.51 304.61 L167.32 296.61 L168.74 288.63 L163.85 283.45 L156.28 279.06 L154.5 272.42 L157.96 264.28 L157.82 257.42 L151.32 252.09 L146.43 246.12 L148.94 238.75 L152.92 231.41 L150.33 225.01 L144.14 218.71 L143.56 211.86 L149.04 205 L151.49 198.38 L147.1 191.48 L143.55 184.35 L147.44 177.89 L153.63 172 L153.61 165.25 L149.36 157.47 L150.02 150.57 L156.99 145.44 L161.8 139.95 L159.94 132.25 L158.07 124.26 L163.04 118.9 L170.84 115.05 L173.35 108.88 L171.46 100.25 L173.41 93.47 L181.29 90.32 L187.94 86.71 L188.71 79.1 L188.82 70.67 L194.57 66.49 L203.26 65.06 L207.92 60.31 L208.6 51.6 L211.88 45.14 L220.09 44.04 L227.84 42.82 L231.06 36.19 L233.31 27.88 L239.6 24.9 L248.39 25.98 L254.57 23.34 L257.74 15.35 L262.39 9.51 L270.39 10.32 L278.37 11.74 L283.55 6.85 L287.94 -0.72 L294.58 -2.5 L302.72 0.96 L309.58 0.82 L314.91 -5.68 L320.88 -10.57 L328.25 -8.06 L335.59 -4.08 L341.99 -6.67 L348.29 -12.86 L355.14 -13.44 L362 -7.96 L368.62 -5.51 L375.52 -9.9 L382.65 -13.45 L389.11 -9.56 L395 -3.37 L401.75 -3.39 L409.53 -7.64 L416.43 -6.98 L421.56 -0.01 L427.05 4.8 L434.75 2.94 L442.74 1.07 L448.1 6.04 L451.95 13.84 L458.12 16.35 L466.75 14.46 L473.53 16.41 L476.68 24.29 L480.29 30.94 L487.9 31.71 L496.33 31.82 L500.51 37.57 L501.94 46.26 L506.69 50.92 L515.4 51.6 L521.86 54.88 L522.96 63.09 L524.18 70.84 L530.81 74.06 L539.12 76.31 L542.1 82.6 L541.02 91.39 L543.66 97.57 L551.65 100.74 L557.49 105.39 L556.68 113.39 L555.26 121.37 L560.15 126.55 L567.72 130.94 L569.5 137.58 L566.04 145.72 L566.18 152.58 L572.68 157.91 L577.57 163.88 L575.06 171.25 L571.08 178.59 L573.67 184.99 L579.86 191.29 L580.44 198.14 L574.96 205 Z"></path></clipPath><clipPath id="ckBand5" clip-rule="evenodd"><path d="M 673.56 205 L679.04 214.96 L680.7 225.05 L675.1 234.6 L670.1 243.92 L672.04 254.11 L675.45 264.79 L672.05 274.3 L664.17 282.58 L660.88 291.83 L663.18 302.86 L662.58 313.21 L654.93 320.98 L647.08 328.36 L645.55 338.43 L646.08 349.75 L640.78 358.26 L630.9 364.03 L624.56 371.62 L623.48 382.7 L620.51 392.82 L611.39 398.45 L601.45 403.09 L596.68 411.9 L594.18 423.03 L587.23 430.23 L576.19 433.09 L567.51 438.1 L563.16 448.17 L557.84 457.48 L547.84 460.79 L536.8 462.2 L529.38 468.75 L523.93 478.81 L515.61 484.41 L504.28 484.24 L494.25 486.06 L487.11 494.12 L479.6 502.03 L469.28 502.99 L458.18 501.02 L449.03 504.56 L441 512.69 L431.61 516.43 L420.83 513.38 L410.58 511.73 L401.41 516.98 L392.05 522.9 L381.92 521.6 L371.79 516.43 L362 516.56 L352.04 522.04 L341.95 523.7 L332.4 518.1 L323.08 513.1 L312.89 515.04 L302.21 518.45 L292.7 515.05 L284.42 507.17 L275.17 503.88 L264.14 506.18 L253.79 505.58 L246.02 497.93 L238.64 490.08 L228.57 488.55 L217.25 489.08 L208.74 483.78 L202.97 473.9 L195.38 467.56 L184.3 466.48 L174.18 463.51 L168.55 454.39 L163.91 444.45 L155.1 439.68 L143.97 437.18 L136.77 430.23 L133.91 419.19 L128.9 410.51 L118.83 406.16 L109.52 400.84 L106.21 390.84 L104.8 379.8 L98.25 372.38 L88.19 366.93 L82.59 358.61 L82.76 347.28 L80.94 337.25 L72.88 330.11 L64.97 322.6 L64.01 312.28 L65.98 301.18 L62.44 292.03 L54.31 284 L50.57 274.61 L53.62 263.83 L55.27 253.58 L50.02 244.41 L44.1 235.05 L45.4 224.92 L50.57 214.79 L50.44 205 L44.96 195.04 L43.3 184.95 L48.9 175.4 L53.9 166.08 L51.96 155.89 L48.55 145.21 L51.95 135.7 L59.83 127.42 L63.12 118.17 L60.82 107.14 L61.42 96.79 L69.07 89.02 L76.92 81.64 L78.45 71.57 L77.92 60.25 L83.22 51.74 L93.1 45.97 L99.44 38.38 L100.52 27.3 L103.49 17.18 L112.61 11.55 L122.55 6.91 L127.32 -1.9 L129.82 -13.03 L136.77 -20.23 L147.81 -23.09 L156.49 -28.1 L160.84 -38.17 L166.16 -47.48 L176.16 -50.79 L187.2 -52.2 L194.62 -58.75 L200.07 -68.81 L208.39 -74.41 L219.72 -74.24 L229.75 -76.06 L236.89 -84.12 L244.4 -92.03 L254.72 -92.99 L265.82 -91.02 L274.97 -94.56 L283 -102.69 L292.39 -106.43 L303.17 -103.38 L313.42 -101.73 L322.59 -106.98 L331.95 -112.9 L342.08 -111.6 L352.21 -106.43 L362 -106.56 L371.96 -112.04 L382.05 -113.7 L391.6 -108.1 L400.92 -103.1 L411.11 -105.04 L421.79 -108.45 L431.3 -105.05 L439.58 -97.17 L448.83 -93.88 L459.86 -96.18 L470.21 -95.58 L477.98 -87.93 L485.36 -80.08 L495.43 -78.55 L506.75 -79.08 L515.26 -73.78 L521.03 -63.9 L528.62 -57.56 L539.7 -56.48 L549.82 -53.51 L555.45 -44.39 L560.09 -34.45 L568.9 -29.68 L580.03 -27.18 L587.23 -20.23 L590.09 -9.19 L595.1 -0.51 L605.17 3.84 L614.48 9.16 L617.79 19.16 L619.2 30.2 L625.75 37.62 L635.81 43.07 L641.41 51.39 L641.24 62.72 L643.06 72.75 L651.12 79.89 L659.03 87.4 L659.99 97.72 L658.02 108.82 L661.56 117.97 L669.69 126 L673.43 135.39 L670.38 146.17 L668.73 156.42 L673.98 165.59 L679.9 174.95 L678.6 185.08 L673.43 195.21 L673.56 205 Z M 607.7 205 L610.22 212.8 L615.34 220.94 L614.14 228.83 L607.59 236.03 L604.96 243.48 L608.67 252.05 L610.47 260.54 L604.89 267.36 L598.1 273.59 L597.71 281.59 L600.51 290.87 L597.83 298.37 L589.63 303.5 L584.4 309.65 L585.25 318.75 L585.1 327.65 L578.33 332.94 L569.77 336.86 L566.6 344.04 L566.77 353.77 L562.67 360.65 L553.51 363.43 L546.28 367.46 L544.24 376.13 L541.96 384.96 L534.41 388.6 L524.92 389.8 L519.41 395.27 L516.86 404.64 L511.43 410.67 L502.01 411.02 L493.6 412.37 L488.97 419.7 L484.53 427.89 L476.57 429.86 L467.04 428.23 L459.92 431.29 L454.83 439.47 L448.18 444.37 L439.14 442.43 L430.53 440.87 L423.89 446.06 L417.44 453.01 L409.38 453.36 L400.66 449.06 L392.86 449.31 L385.68 455.54 L377.98 459.04 L369.86 455.09 L362 450.7 L354.2 453.22 L346.06 458.34 L338.17 457.14 L330.97 450.59 L323.52 447.96 L314.95 451.67 L306.46 453.47 L299.64 447.89 L293.41 441.1 L285.41 440.71 L276.13 443.51 L268.63 440.83 L263.5 432.63 L257.35 427.4 L248.25 428.25 L239.35 428.1 L234.06 421.33 L230.14 412.77 L222.96 409.6 L213.23 409.77 L206.35 405.67 L203.57 396.51 L199.54 389.28 L190.87 387.24 L182.04 384.96 L178.4 377.41 L177.2 367.92 L171.73 362.41 L162.36 359.86 L156.33 354.43 L155.98 345.01 L154.63 336.6 L147.3 331.97 L139.11 327.53 L137.14 319.57 L138.77 310.04 L135.71 302.92 L127.53 297.83 L122.63 291.18 L124.57 282.14 L126.13 273.53 L120.94 266.89 L113.99 260.44 L113.64 252.38 L117.94 243.66 L117.69 235.86 L111.46 228.68 L107.96 220.98 L111.91 212.86 L116.3 205 L113.78 197.2 L108.66 189.06 L109.86 181.17 L116.41 173.97 L119.04 166.52 L115.33 157.95 L113.53 149.46 L119.11 142.64 L125.9 136.41 L126.29 128.41 L123.49 119.13 L126.17 111.63 L134.37 106.5 L139.6 100.35 L138.75 91.25 L138.9 82.35 L145.67 77.06 L154.23 73.14 L157.4 65.96 L157.23 56.23 L161.33 49.35 L170.49 46.57 L177.72 42.54 L179.76 33.87 L182.04 25.04 L189.59 21.4 L199.08 20.2 L204.59 14.73 L207.14 5.36 L212.57 -0.67 L221.99 -1.02 L230.4 -2.37 L235.03 -9.7 L239.47 -17.89 L247.43 -19.86 L256.96 -18.23 L264.08 -21.29 L269.17 -29.47 L275.82 -34.37 L284.86 -32.43 L293.47 -30.87 L300.11 -36.06 L306.56 -43.01 L314.62 -43.36 L323.34 -39.06 L331.14 -39.31 L338.32 -45.54 L346.02 -49.04 L354.14 -45.09 L362 -40.7 L369.8 -43.22 L377.94 -48.34 L385.83 -47.14 L393.03 -40.59 L400.48 -37.96 L409.05 -41.67 L417.54 -43.47 L424.36 -37.89 L430.59 -31.1 L438.59 -30.71 L447.87 -33.51 L455.37 -30.83 L460.5 -22.63 L466.65 -17.4 L475.75 -18.25 L484.65 -18.1 L489.94 -11.33 L493.86 -2.77 L501.04 0.4 L510.77 0.23 L517.65 4.33 L520.43 13.49 L524.46 20.72 L533.13 22.76 L541.96 25.04 L545.6 32.59 L546.8 42.08 L552.27 47.59 L561.64 50.14 L567.67 55.57 L568.02 64.99 L569.37 73.4 L576.7 78.03 L584.89 82.47 L586.86 90.43 L585.23 99.96 L588.29 107.08 L596.47 112.17 L601.37 118.82 L599.43 127.86 L597.87 136.47 L603.06 143.11 L610.01 149.56 L610.36 157.62 L606.06 166.34 L606.31 174.14 L612.54 181.32 L616.04 189.02 L612.09 197.14 L607.7 205 Z"></path></clipPath></defs>
  <g clip-path="url(#ckCook)">
  <g class="hm-piece" data-piece="5">
    <g clip-path="url(#ckBand5)">
      
      <circle cx="200" cy="200" r="140" fill="#DBA152"></circle>
      <circle cx="200" cy="200" r="137" fill="#E6B266"></circle>
      <circle cx="190" cy="186" r="96" fill="#EEBE76" opacity="0.65"></circle>
      <circle cx="170" cy="150" r="2.4" fill="#EFC074" opacity="0.55"></circle><circle cx="230" cy="160" r="2.4" fill="#C88A42" opacity="0.55"></circle><circle cx="255" cy="200" r="2.4" fill="#EFC074" opacity="0.55"></circle><circle cx="160" cy="210" r="2.4" fill="#C88A42" opacity="0.55"></circle><circle cx="205" cy="180" r="2.4" fill="#EFC074" opacity="0.55"></circle><circle cx="185" cy="255" r="2.4" fill="#C88A42" opacity="0.55"></circle><circle cx="240" cy="235" r="2.4" fill="#EFC074" opacity="0.55"></circle><circle cx="145" cy="175" r="2.4" fill="#C88A42" opacity="0.55"></circle><circle cx="270" cy="180" r="2.4" fill="#EFC074" opacity="0.55"></circle><circle cx="150" cy="240" r="2.4" fill="#C88A42" opacity="0.55"></circle><circle cx="225" cy="265" r="2.4" fill="#EFC074" opacity="0.55"></circle><circle cx="195" cy="135" r="2.4" fill="#C88A42" opacity="0.55"></circle>
      <g transform="rotate(15 150 142)">
    <path d="M 146.25 124.5 Q 161.25 123.25 166.25 137 Q 170 152 157.5 158.25 Q 142.5 162 133.75 149.5 Q 128.75 134.5 146.25 124.5 Z" fill="#3A2114" stroke="#3D3958" stroke-width="1.8" stroke-linejoin="round"></path>
    <path d="M 146.25 127 Q 158.75 125.75 162.5 137 Q 152.5 139.5 142.5 144.5 Q 136.25 135.75 146.25 127 Z" fill="#5E3A22"></path>
    <ellipse cx="145" cy="133.25" rx="3.25" ry="2" fill="#8A5A34" opacity="0.8"></ellipse>
  </g><g transform="rotate(-18 212 134)">
    <path d="M 209 120 Q 221 119 225 130 Q 228 142 218 147 Q 206 150 199 140 Q 195 128 209 120 Z" fill="#3A2114" stroke="#3D3958" stroke-width="1.8" stroke-linejoin="round"></path>
    <path d="M 209 122 Q 219 121 222 130 Q 214 132 206 136 Q 201 129 209 122 Z" fill="#5E3A22"></path>
    <ellipse cx="208" cy="127" rx="2.6" ry="1.6" fill="#8A5A34" opacity="0.8"></ellipse>
  </g><g transform="rotate(28 262 166)">
    <path d="M 258.55 149.9 Q 272.35 148.75 276.95 161.4 Q 280.4 175.2 268.9 180.95 Q 255.1 184.4 247.05 172.9 Q 242.45 159.1 258.55 149.9 Z" fill="#3A2114" stroke="#3D3958" stroke-width="1.8" stroke-linejoin="round"></path>
    <path d="M 258.55 152.2 Q 270.05 151.05 273.5 161.4 Q 264.3 163.7 255.1 168.3 Q 249.35 160.25 258.55 152.2 Z" fill="#5E3A22"></path>
    <ellipse cx="257.4" cy="157.95" rx="2.99" ry="1.84" fill="#8A5A34" opacity="0.8"></ellipse>
  </g><g transform="rotate(-30 176 182)">
    <path d="M 173.45 170.1 Q 183.65 169.25 187.05 178.6 Q 189.6 188.8 181.1 193.05 Q 170.9 195.6 164.95 187.1 Q 161.55 176.9 173.45 170.1 Z" fill="#3A2114" stroke="#3D3958" stroke-width="1.8" stroke-linejoin="round"></path>
    <path d="M 173.45 171.8 Q 181.95 170.95 184.5 178.6 Q 177.7 180.3 170.9 183.7 Q 166.65 177.75 173.45 171.8 Z" fill="#5E3A22"></path>
    <ellipse cx="172.6" cy="176.05" rx="2.21" ry="1.36" fill="#8A5A34" opacity="0.8"></ellipse>
  </g><g transform="rotate(10 232 202)">
    <path d="M 228.4 185.2 Q 242.8 184 247.6 197.2 Q 251.2 211.6 239.2 217.6 Q 224.8 221.2 216.4 209.2 Q 211.6 194.8 228.4 185.2 Z" fill="#3A2114" stroke="#3D3958" stroke-width="1.8" stroke-linejoin="round"></path>
    <path d="M 228.4 187.6 Q 240.4 186.4 244 197.2 Q 234.4 199.6 224.8 204.4 Q 218.8 196 228.4 187.6 Z" fill="#5E3A22"></path>
    <ellipse cx="227.2" cy="193.6" rx="3.12" ry="1.92" fill="#8A5A34" opacity="0.8"></ellipse>
  </g><g transform="rotate(-12 138 206)">
    <path d="M 135 192 Q 147 191 151 202 Q 154 214 144 219 Q 132 222 125 212 Q 121 200 135 192 Z" fill="#3A2114" stroke="#3D3958" stroke-width="1.8" stroke-linejoin="round"></path>
    <path d="M 135 194 Q 145 193 148 202 Q 140 204 132 208 Q 127 201 135 194 Z" fill="#5E3A22"></path>
    <ellipse cx="134" cy="199" rx="2.6" ry="1.6" fill="#8A5A34" opacity="0.8"></ellipse>
  </g><g transform="rotate(40 281 226)">
    <path d="M 278.3 213.4 Q 289.1 212.5 292.7 222.4 Q 295.4 233.2 286.4 237.7 Q 275.6 240.4 269.3 231.4 Q 265.7 220.6 278.3 213.4 Z" fill="#3A2114" stroke="#3D3958" stroke-width="1.8" stroke-linejoin="round"></path>
    <path d="M 278.3 215.2 Q 287.3 214.3 290 222.4 Q 282.8 224.2 275.6 227.8 Q 271.1 221.5 278.3 215.2 Z" fill="#5E3A22"></path>
    <ellipse cx="277.4" cy="219.7" rx="2.34" ry="1.44" fill="#8A5A34" opacity="0.8"></ellipse>
  </g><g transform="rotate(-22 196 236)">
    <path d="M 192.7 220.6 Q 205.9 219.5 210.3 231.6 Q 213.6 244.8 202.6 250.3 Q 189.4 253.6 181.7 242.6 Q 177.3 229.4 192.7 220.6 Z" fill="#3A2114" stroke="#3D3958" stroke-width="1.8" stroke-linejoin="round"></path>
    <path d="M 192.7 222.8 Q 203.7 221.7 207 231.6 Q 198.2 233.8 189.4 238.2 Q 183.9 230.5 192.7 222.8 Z" fill="#5E3A22"></path>
    <ellipse cx="191.6" cy="228.3" rx="2.86" ry="1.76" fill="#8A5A34" opacity="0.8"></ellipse>
  </g><g transform="rotate(18 251 256)">
    <path d="M 248 242 Q 260 241 264 252 Q 267 264 257 269 Q 245 272 238 262 Q 234 250 248 242 Z" fill="#3A2114" stroke="#3D3958" stroke-width="1.8" stroke-linejoin="round"></path>
    <path d="M 248 244 Q 258 243 261 252 Q 253 254 245 258 Q 240 251 248 244 Z" fill="#5E3A22"></path>
    <ellipse cx="247" cy="249" rx="2.6" ry="1.6" fill="#8A5A34" opacity="0.8"></ellipse>
  </g><g transform="rotate(-28 164 260)">
    <path d="M 160.55 243.9 Q 174.35 242.75 178.95 255.4 Q 182.4 269.2 170.9 274.95 Q 157.1 278.4 149.05 266.9 Q 144.45 253.1 160.55 243.9 Z" fill="#3A2114" stroke="#3D3958" stroke-width="1.8" stroke-linejoin="round"></path>
    <path d="M 160.55 246.2 Q 172.05 245.05 175.5 255.4 Q 166.3 257.7 157.1 262.3 Q 151.35 254.25 160.55 246.2 Z" fill="#5E3A22"></path>
    <ellipse cx="159.4" cy="251.95" rx="2.99" ry="1.84" fill="#8A5A34" opacity="0.8"></ellipse>
  </g><g transform="rotate(33 214 286)">
    <path d="M 211.45 274.1 Q 221.65 273.25 225.05 282.6 Q 227.6 292.8 219.1 297.05 Q 208.9 299.6 202.95 291.1 Q 199.55 280.9 211.45 274.1 Z" fill="#3A2114" stroke="#3D3958" stroke-width="1.8" stroke-linejoin="round"></path>
    <path d="M 211.45 275.8 Q 219.95 274.95 222.5 282.6 Q 215.7 284.3 208.9 287.7 Q 204.65 281.75 211.45 275.8 Z" fill="#5E3A22"></path>
    <ellipse cx="210.6" cy="280.05" rx="2.21" ry="1.36" fill="#8A5A34" opacity="0.8"></ellipse>
  </g><g transform="rotate(-40 120 166)">
    <path d="M 117.15 152.7 Q 128.55 151.75 132.35 162.2 Q 135.2 173.6 125.7 178.35 Q 114.3 181.2 107.65 171.7 Q 103.85 160.3 117.15 152.7 Z" fill="#3A2114" stroke="#3D3958" stroke-width="1.8" stroke-linejoin="round"></path>
    <path d="M 117.15 154.6 Q 126.65 153.65 129.5 162.2 Q 121.9 164.1 114.3 167.9 Q 109.55 161.25 117.15 154.6 Z" fill="#5E3A22"></path>
    <ellipse cx="116.2" cy="159.35" rx="2.47" ry="1.52" fill="#8A5A34" opacity="0.8"></ellipse>
  </g>
      <circle cx="200" cy="200" r="140" fill="none" stroke="#3D3958" stroke-width="6"></circle>
      <path d="M 607.7 205 L610.22 212.8 L615.34 220.94 L614.14 228.83 L607.59 236.03 L604.96 243.48 L608.67 252.05 L610.47 260.54 L604.89 267.36 L598.1 273.59 L597.71 281.59 L600.51 290.87 L597.83 298.37 L589.63 303.5 L584.4 309.65 L585.25 318.75 L585.1 327.65 L578.33 332.94 L569.77 336.86 L566.6 344.04 L566.77 353.77 L562.67 360.65 L553.51 363.43 L546.28 367.46 L544.24 376.13 L541.96 384.96 L534.41 388.6 L524.92 389.8 L519.41 395.27 L516.86 404.64 L511.43 410.67 L502.01 411.02 L493.6 412.37 L488.97 419.7 L484.53 427.89 L476.57 429.86 L467.04 428.23 L459.92 431.29 L454.83 439.47 L448.18 444.37 L439.14 442.43 L430.53 440.87 L423.89 446.06 L417.44 453.01 L409.38 453.36 L400.66 449.06 L392.86 449.31 L385.68 455.54 L377.98 459.04 L369.86 455.09 L362 450.7 L354.2 453.22 L346.06 458.34 L338.17 457.14 L330.97 450.59 L323.52 447.96 L314.95 451.67 L306.46 453.47 L299.64 447.89 L293.41 441.1 L285.41 440.71 L276.13 443.51 L268.63 440.83 L263.5 432.63 L257.35 427.4 L248.25 428.25 L239.35 428.1 L234.06 421.33 L230.14 412.77 L222.96 409.6 L213.23 409.77 L206.35 405.67 L203.57 396.51 L199.54 389.28 L190.87 387.24 L182.04 384.96 L178.4 377.41 L177.2 367.92 L171.73 362.41 L162.36 359.86 L156.33 354.43 L155.98 345.01 L154.63 336.6 L147.3 331.97 L139.11 327.53 L137.14 319.57 L138.77 310.04 L135.71 302.92 L127.53 297.83 L122.63 291.18 L124.57 282.14 L126.13 273.53 L120.94 266.89 L113.99 260.44 L113.64 252.38 L117.94 243.66 L117.69 235.86 L111.46 228.68 L107.96 220.98 L111.91 212.86 L116.3 205 L113.78 197.2 L108.66 189.06 L109.86 181.17 L116.41 173.97 L119.04 166.52 L115.33 157.95 L113.53 149.46 L119.11 142.64 L125.9 136.41 L126.29 128.41 L123.49 119.13 L126.17 111.63 L134.37 106.5 L139.6 100.35 L138.75 91.25 L138.9 82.35 L145.67 77.06 L154.23 73.14 L157.4 65.96 L157.23 56.23 L161.33 49.35 L170.49 46.57 L177.72 42.54 L179.76 33.87 L182.04 25.04 L189.59 21.4 L199.08 20.2 L204.59 14.73 L207.14 5.36 L212.57 -0.67 L221.99 -1.02 L230.4 -2.37 L235.03 -9.7 L239.47 -17.89 L247.43 -19.86 L256.96 -18.23 L264.08 -21.29 L269.17 -29.47 L275.82 -34.37 L284.86 -32.43 L293.47 -30.87 L300.11 -36.06 L306.56 -43.01 L314.62 -43.36 L323.34 -39.06 L331.14 -39.31 L338.32 -45.54 L346.02 -49.04 L354.14 -45.09 L362 -40.7 L369.8 -43.22 L377.94 -48.34 L385.83 -47.14 L393.03 -40.59 L400.48 -37.96 L409.05 -41.67 L417.54 -43.47 L424.36 -37.89 L430.59 -31.1 L438.59 -30.71 L447.87 -33.51 L455.37 -30.83 L460.5 -22.63 L466.65 -17.4 L475.75 -18.25 L484.65 -18.1 L489.94 -11.33 L493.86 -2.77 L501.04 0.4 L510.77 0.23 L517.65 4.33 L520.43 13.49 L524.46 20.72 L533.13 22.76 L541.96 25.04 L545.6 32.59 L546.8 42.08 L552.27 47.59 L561.64 50.14 L567.67 55.57 L568.02 64.99 L569.37 73.4 L576.7 78.03 L584.89 82.47 L586.86 90.43 L585.23 99.96 L588.29 107.08 L596.47 112.17 L601.37 118.82 L599.43 127.86 L597.87 136.47 L603.06 143.11 L610.01 149.56 L610.36 157.62 L606.06 166.34 L606.31 174.14 L612.54 181.32 L616.04 189.02 L612.09 197.14 L607.7 205 Z" fill="none" stroke="#3D3958" stroke-width="4"></path>
    </g>
  </g>
  <g class="hm-piece" data-piece="4">
    <g clip-path="url(#ckBand4)">
      
      <circle cx="200" cy="200" r="140" fill="#DBA152"></circle>
      <circle cx="200" cy="200" r="137" fill="#E6B266"></circle>
      <circle cx="190" cy="186" r="96" fill="#EEBE76" opacity="0.65"></circle>
      <circle cx="170" cy="150" r="2.4" fill="#EFC074" opacity="0.55"></circle><circle cx="230" cy="160" r="2.4" fill="#C88A42" opacity="0.55"></circle><circle cx="255" cy="200" r="2.4" fill="#EFC074" opacity="0.55"></circle><circle cx="160" cy="210" r="2.4" fill="#C88A42" opacity="0.55"></circle><circle cx="205" cy="180" r="2.4" fill="#EFC074" opacity="0.55"></circle><circle cx="185" cy="255" r="2.4" fill="#C88A42" opacity="0.55"></circle><circle cx="240" cy="235" r="2.4" fill="#EFC074" opacity="0.55"></circle><circle cx="145" cy="175" r="2.4" fill="#C88A42" opacity="0.55"></circle><circle cx="270" cy="180" r="2.4" fill="#EFC074" opacity="0.55"></circle><circle cx="150" cy="240" r="2.4" fill="#C88A42" opacity="0.55"></circle><circle cx="225" cy="265" r="2.4" fill="#EFC074" opacity="0.55"></circle><circle cx="195" cy="135" r="2.4" fill="#C88A42" opacity="0.55"></circle>
      <g transform="rotate(15 150 142)">
    <path d="M 146.25 124.5 Q 161.25 123.25 166.25 137 Q 170 152 157.5 158.25 Q 142.5 162 133.75 149.5 Q 128.75 134.5 146.25 124.5 Z" fill="#3A2114" stroke="#3D3958" stroke-width="1.8" stroke-linejoin="round"></path>
    <path d="M 146.25 127 Q 158.75 125.75 162.5 137 Q 152.5 139.5 142.5 144.5 Q 136.25 135.75 146.25 127 Z" fill="#5E3A22"></path>
    <ellipse cx="145" cy="133.25" rx="3.25" ry="2" fill="#8A5A34" opacity="0.8"></ellipse>
  </g><g transform="rotate(-18 212 134)">
    <path d="M 209 120 Q 221 119 225 130 Q 228 142 218 147 Q 206 150 199 140 Q 195 128 209 120 Z" fill="#3A2114" stroke="#3D3958" stroke-width="1.8" stroke-linejoin="round"></path>
    <path d="M 209 122 Q 219 121 222 130 Q 214 132 206 136 Q 201 129 209 122 Z" fill="#5E3A22"></path>
    <ellipse cx="208" cy="127" rx="2.6" ry="1.6" fill="#8A5A34" opacity="0.8"></ellipse>
  </g><g transform="rotate(28 262 166)">
    <path d="M 258.55 149.9 Q 272.35 148.75 276.95 161.4 Q 280.4 175.2 268.9 180.95 Q 255.1 184.4 247.05 172.9 Q 242.45 159.1 258.55 149.9 Z" fill="#3A2114" stroke="#3D3958" stroke-width="1.8" stroke-linejoin="round"></path>
    <path d="M 258.55 152.2 Q 270.05 151.05 273.5 161.4 Q 264.3 163.7 255.1 168.3 Q 249.35 160.25 258.55 152.2 Z" fill="#5E3A22"></path>
    <ellipse cx="257.4" cy="157.95" rx="2.99" ry="1.84" fill="#8A5A34" opacity="0.8"></ellipse>
  </g><g transform="rotate(-30 176 182)">
    <path d="M 173.45 170.1 Q 183.65 169.25 187.05 178.6 Q 189.6 188.8 181.1 193.05 Q 170.9 195.6 164.95 187.1 Q 161.55 176.9 173.45 170.1 Z" fill="#3A2114" stroke="#3D3958" stroke-width="1.8" stroke-linejoin="round"></path>
    <path d="M 173.45 171.8 Q 181.95 170.95 184.5 178.6 Q 177.7 180.3 170.9 183.7 Q 166.65 177.75 173.45 171.8 Z" fill="#5E3A22"></path>
    <ellipse cx="172.6" cy="176.05" rx="2.21" ry="1.36" fill="#8A5A34" opacity="0.8"></ellipse>
  </g><g transform="rotate(10 232 202)">
    <path d="M 228.4 185.2 Q 242.8 184 247.6 197.2 Q 251.2 211.6 239.2 217.6 Q 224.8 221.2 216.4 209.2 Q 211.6 194.8 228.4 185.2 Z" fill="#3A2114" stroke="#3D3958" stroke-width="1.8" stroke-linejoin="round"></path>
    <path d="M 228.4 187.6 Q 240.4 186.4 244 197.2 Q 234.4 199.6 224.8 204.4 Q 218.8 196 228.4 187.6 Z" fill="#5E3A22"></path>
    <ellipse cx="227.2" cy="193.6" rx="3.12" ry="1.92" fill="#8A5A34" opacity="0.8"></ellipse>
  </g><g transform="rotate(-12 138 206)">
    <path d="M 135 192 Q 147 191 151 202 Q 154 214 144 219 Q 132 222 125 212 Q 121 200 135 192 Z" fill="#3A2114" stroke="#3D3958" stroke-width="1.8" stroke-linejoin="round"></path>
    <path d="M 135 194 Q 145 193 148 202 Q 140 204 132 208 Q 127 201 135 194 Z" fill="#5E3A22"></path>
    <ellipse cx="134" cy="199" rx="2.6" ry="1.6" fill="#8A5A34" opacity="0.8"></ellipse>
  </g><g transform="rotate(40 281 226)">
    <path d="M 278.3 213.4 Q 289.1 212.5 292.7 222.4 Q 295.4 233.2 286.4 237.7 Q 275.6 240.4 269.3 231.4 Q 265.7 220.6 278.3 213.4 Z" fill="#3A2114" stroke="#3D3958" stroke-width="1.8" stroke-linejoin="round"></path>
    <path d="M 278.3 215.2 Q 287.3 214.3 290 222.4 Q 282.8 224.2 275.6 227.8 Q 271.1 221.5 278.3 215.2 Z" fill="#5E3A22"></path>
    <ellipse cx="277.4" cy="219.7" rx="2.34" ry="1.44" fill="#8A5A34" opacity="0.8"></ellipse>
  </g><g transform="rotate(-22 196 236)">
    <path d="M 192.7 220.6 Q 205.9 219.5 210.3 231.6 Q 213.6 244.8 202.6 250.3 Q 189.4 253.6 181.7 242.6 Q 177.3 229.4 192.7 220.6 Z" fill="#3A2114" stroke="#3D3958" stroke-width="1.8" stroke-linejoin="round"></path>
    <path d="M 192.7 222.8 Q 203.7 221.7 207 231.6 Q 198.2 233.8 189.4 238.2 Q 183.9 230.5 192.7 222.8 Z" fill="#5E3A22"></path>
    <ellipse cx="191.6" cy="228.3" rx="2.86" ry="1.76" fill="#8A5A34" opacity="0.8"></ellipse>
  </g><g transform="rotate(18 251 256)">
    <path d="M 248 242 Q 260 241 264 252 Q 267 264 257 269 Q 245 272 238 262 Q 234 250 248 242 Z" fill="#3A2114" stroke="#3D3958" stroke-width="1.8" stroke-linejoin="round"></path>
    <path d="M 248 244 Q 258 243 261 252 Q 253 254 245 258 Q 240 251 248 244 Z" fill="#5E3A22"></path>
    <ellipse cx="247" cy="249" rx="2.6" ry="1.6" fill="#8A5A34" opacity="0.8"></ellipse>
  </g><g transform="rotate(-28 164 260)">
    <path d="M 160.55 243.9 Q 174.35 242.75 178.95 255.4 Q 182.4 269.2 170.9 274.95 Q 157.1 278.4 149.05 266.9 Q 144.45 253.1 160.55 243.9 Z" fill="#3A2114" stroke="#3D3958" stroke-width="1.8" stroke-linejoin="round"></path>
    <path d="M 160.55 246.2 Q 172.05 245.05 175.5 255.4 Q 166.3 257.7 157.1 262.3 Q 151.35 254.25 160.55 246.2 Z" fill="#5E3A22"></path>
    <ellipse cx="159.4" cy="251.95" rx="2.99" ry="1.84" fill="#8A5A34" opacity="0.8"></ellipse>
  </g><g transform="rotate(33 214 286)">
    <path d="M 211.45 274.1 Q 221.65 273.25 225.05 282.6 Q 227.6 292.8 219.1 297.05 Q 208.9 299.6 202.95 291.1 Q 199.55 280.9 211.45 274.1 Z" fill="#3A2114" stroke="#3D3958" stroke-width="1.8" stroke-linejoin="round"></path>
    <path d="M 211.45 275.8 Q 219.95 274.95 222.5 282.6 Q 215.7 284.3 208.9 287.7 Q 204.65 281.75 211.45 275.8 Z" fill="#5E3A22"></path>
    <ellipse cx="210.6" cy="280.05" rx="2.21" ry="1.36" fill="#8A5A34" opacity="0.8"></ellipse>
  </g><g transform="rotate(-40 120 166)">
    <path d="M 117.15 152.7 Q 128.55 151.75 132.35 162.2 Q 135.2 173.6 125.7 178.35 Q 114.3 181.2 107.65 171.7 Q 103.85 160.3 117.15 152.7 Z" fill="#3A2114" stroke="#3D3958" stroke-width="1.8" stroke-linejoin="round"></path>
    <path d="M 117.15 154.6 Q 126.65 153.65 129.5 162.2 Q 121.9 164.1 114.3 167.9 Q 109.55 161.25 117.15 154.6 Z" fill="#5E3A22"></path>
    <ellipse cx="116.2" cy="159.35" rx="2.47" ry="1.52" fill="#8A5A34" opacity="0.8"></ellipse>
  </g>
      <circle cx="200" cy="200" r="140" fill="none" stroke="#3D3958" stroke-width="6"></circle>
      <path d="M 574.96 205 L572.51 211.62 L576.9 218.52 L580.45 225.65 L576.56 232.11 L570.37 238 L570.39 244.75 L574.64 252.53 L573.98 259.43 L567.01 264.56 L562.2 270.05 L564.06 277.75 L565.93 285.74 L560.96 291.1 L553.16 294.95 L550.65 301.12 L552.54 309.75 L550.59 316.53 L542.71 319.68 L536.06 323.29 L535.29 330.9 L535.18 339.33 L529.43 343.51 L520.74 344.94 L516.08 349.69 L515.4 358.4 L512.12 364.86 L503.91 365.96 L496.16 367.18 L492.94 373.81 L490.69 382.12 L484.4 385.1 L475.61 384.02 L469.43 386.66 L466.26 394.65 L461.61 400.49 L453.61 399.68 L445.63 398.26 L440.45 403.15 L436.06 410.72 L429.42 412.5 L421.28 409.04 L414.42 409.18 L409.09 415.68 L403.12 420.57 L395.75 418.06 L388.41 414.08 L382.01 416.67 L375.71 422.86 L368.86 423.44 L362 417.96 L355.38 415.51 L348.48 419.9 L341.35 423.45 L334.89 419.56 L329 413.37 L322.25 413.39 L314.47 417.64 L307.57 416.98 L302.44 410.01 L296.95 405.2 L289.25 407.06 L281.26 408.93 L275.9 403.96 L272.05 396.16 L265.88 393.65 L257.25 395.54 L250.47 393.59 L247.32 385.71 L243.71 379.06 L236.1 378.29 L227.67 378.18 L223.49 372.43 L222.06 363.74 L217.31 359.08 L208.6 358.4 L202.14 355.12 L201.04 346.91 L199.82 339.16 L193.19 335.94 L184.88 333.69 L181.9 327.4 L182.98 318.61 L180.34 312.43 L172.35 309.26 L166.51 304.61 L167.32 296.61 L168.74 288.63 L163.85 283.45 L156.28 279.06 L154.5 272.42 L157.96 264.28 L157.82 257.42 L151.32 252.09 L146.43 246.12 L148.94 238.75 L152.92 231.41 L150.33 225.01 L144.14 218.71 L143.56 211.86 L149.04 205 L151.49 198.38 L147.1 191.48 L143.55 184.35 L147.44 177.89 L153.63 172 L153.61 165.25 L149.36 157.47 L150.02 150.57 L156.99 145.44 L161.8 139.95 L159.94 132.25 L158.07 124.26 L163.04 118.9 L170.84 115.05 L173.35 108.88 L171.46 100.25 L173.41 93.47 L181.29 90.32 L187.94 86.71 L188.71 79.1 L188.82 70.67 L194.57 66.49 L203.26 65.06 L207.92 60.31 L208.6 51.6 L211.88 45.14 L220.09 44.04 L227.84 42.82 L231.06 36.19 L233.31 27.88 L239.6 24.9 L248.39 25.98 L254.57 23.34 L257.74 15.35 L262.39 9.51 L270.39 10.32 L278.37 11.74 L283.55 6.85 L287.94 -0.72 L294.58 -2.5 L302.72 0.96 L309.58 0.82 L314.91 -5.68 L320.88 -10.57 L328.25 -8.06 L335.59 -4.08 L341.99 -6.67 L348.29 -12.86 L355.14 -13.44 L362 -7.96 L368.62 -5.51 L375.52 -9.9 L382.65 -13.45 L389.11 -9.56 L395 -3.37 L401.75 -3.39 L409.53 -7.64 L416.43 -6.98 L421.56 -0.01 L427.05 4.8 L434.75 2.94 L442.74 1.07 L448.1 6.04 L451.95 13.84 L458.12 16.35 L466.75 14.46 L473.53 16.41 L476.68 24.29 L480.29 30.94 L487.9 31.71 L496.33 31.82 L500.51 37.57 L501.94 46.26 L506.69 50.92 L515.4 51.6 L521.86 54.88 L522.96 63.09 L524.18 70.84 L530.81 74.06 L539.12 76.31 L542.1 82.6 L541.02 91.39 L543.66 97.57 L551.65 100.74 L557.49 105.39 L556.68 113.39 L555.26 121.37 L560.15 126.55 L567.72 130.94 L569.5 137.58 L566.04 145.72 L566.18 152.58 L572.68 157.91 L577.57 163.88 L575.06 171.25 L571.08 178.59 L573.67 184.99 L579.86 191.29 L580.44 198.14 L574.96 205 Z" fill="none" stroke="#3D3958" stroke-width="4"></path>
    </g>
  </g>
  <g class="hm-piece" data-piece="3">
    <g clip-path="url(#ckBand3)">
      
      <circle cx="200" cy="200" r="140" fill="#DBA152"></circle>
      <circle cx="200" cy="200" r="137" fill="#E6B266"></circle>
      <circle cx="190" cy="186" r="96" fill="#EEBE76" opacity="0.65"></circle>
      <circle cx="170" cy="150" r="2.4" fill="#EFC074" opacity="0.55"></circle><circle cx="230" cy="160" r="2.4" fill="#C88A42" opacity="0.55"></circle><circle cx="255" cy="200" r="2.4" fill="#EFC074" opacity="0.55"></circle><circle cx="160" cy="210" r="2.4" fill="#C88A42" opacity="0.55"></circle><circle cx="205" cy="180" r="2.4" fill="#EFC074" opacity="0.55"></circle><circle cx="185" cy="255" r="2.4" fill="#C88A42" opacity="0.55"></circle><circle cx="240" cy="235" r="2.4" fill="#EFC074" opacity="0.55"></circle><circle cx="145" cy="175" r="2.4" fill="#C88A42" opacity="0.55"></circle><circle cx="270" cy="180" r="2.4" fill="#EFC074" opacity="0.55"></circle><circle cx="150" cy="240" r="2.4" fill="#C88A42" opacity="0.55"></circle><circle cx="225" cy="265" r="2.4" fill="#EFC074" opacity="0.55"></circle><circle cx="195" cy="135" r="2.4" fill="#C88A42" opacity="0.55"></circle>
      <g transform="rotate(15 150 142)">
    <path d="M 146.25 124.5 Q 161.25 123.25 166.25 137 Q 170 152 157.5 158.25 Q 142.5 162 133.75 149.5 Q 128.75 134.5 146.25 124.5 Z" fill="#3A2114" stroke="#3D3958" stroke-width="1.8" stroke-linejoin="round"></path>
    <path d="M 146.25 127 Q 158.75 125.75 162.5 137 Q 152.5 139.5 142.5 144.5 Q 136.25 135.75 146.25 127 Z" fill="#5E3A22"></path>
    <ellipse cx="145" cy="133.25" rx="3.25" ry="2" fill="#8A5A34" opacity="0.8"></ellipse>
  </g><g transform="rotate(-18 212 134)">
    <path d="M 209 120 Q 221 119 225 130 Q 228 142 218 147 Q 206 150 199 140 Q 195 128 209 120 Z" fill="#3A2114" stroke="#3D3958" stroke-width="1.8" stroke-linejoin="round"></path>
    <path d="M 209 122 Q 219 121 222 130 Q 214 132 206 136 Q 201 129 209 122 Z" fill="#5E3A22"></path>
    <ellipse cx="208" cy="127" rx="2.6" ry="1.6" fill="#8A5A34" opacity="0.8"></ellipse>
  </g><g transform="rotate(28 262 166)">
    <path d="M 258.55 149.9 Q 272.35 148.75 276.95 161.4 Q 280.4 175.2 268.9 180.95 Q 255.1 184.4 247.05 172.9 Q 242.45 159.1 258.55 149.9 Z" fill="#3A2114" stroke="#3D3958" stroke-width="1.8" stroke-linejoin="round"></path>
    <path d="M 258.55 152.2 Q 270.05 151.05 273.5 161.4 Q 264.3 163.7 255.1 168.3 Q 249.35 160.25 258.55 152.2 Z" fill="#5E3A22"></path>
    <ellipse cx="257.4" cy="157.95" rx="2.99" ry="1.84" fill="#8A5A34" opacity="0.8"></ellipse>
  </g><g transform="rotate(-30 176 182)">
    <path d="M 173.45 170.1 Q 183.65 169.25 187.05 178.6 Q 189.6 188.8 181.1 193.05 Q 170.9 195.6 164.95 187.1 Q 161.55 176.9 173.45 170.1 Z" fill="#3A2114" stroke="#3D3958" stroke-width="1.8" stroke-linejoin="round"></path>
    <path d="M 173.45 171.8 Q 181.95 170.95 184.5 178.6 Q 177.7 180.3 170.9 183.7 Q 166.65 177.75 173.45 171.8 Z" fill="#5E3A22"></path>
    <ellipse cx="172.6" cy="176.05" rx="2.21" ry="1.36" fill="#8A5A34" opacity="0.8"></ellipse>
  </g><g transform="rotate(10 232 202)">
    <path d="M 228.4 185.2 Q 242.8 184 247.6 197.2 Q 251.2 211.6 239.2 217.6 Q 224.8 221.2 216.4 209.2 Q 211.6 194.8 228.4 185.2 Z" fill="#3A2114" stroke="#3D3958" stroke-width="1.8" stroke-linejoin="round"></path>
    <path d="M 228.4 187.6 Q 240.4 186.4 244 197.2 Q 234.4 199.6 224.8 204.4 Q 218.8 196 228.4 187.6 Z" fill="#5E3A22"></path>
    <ellipse cx="227.2" cy="193.6" rx="3.12" ry="1.92" fill="#8A5A34" opacity="0.8"></ellipse>
  </g><g transform="rotate(-12 138 206)">
    <path d="M 135 192 Q 147 191 151 202 Q 154 214 144 219 Q 132 222 125 212 Q 121 200 135 192 Z" fill="#3A2114" stroke="#3D3958" stroke-width="1.8" stroke-linejoin="round"></path>
    <path d="M 135 194 Q 145 193 148 202 Q 140 204 132 208 Q 127 201 135 194 Z" fill="#5E3A22"></path>
    <ellipse cx="134" cy="199" rx="2.6" ry="1.6" fill="#8A5A34" opacity="0.8"></ellipse>
  </g><g transform="rotate(40 281 226)">
    <path d="M 278.3 213.4 Q 289.1 212.5 292.7 222.4 Q 295.4 233.2 286.4 237.7 Q 275.6 240.4 269.3 231.4 Q 265.7 220.6 278.3 213.4 Z" fill="#3A2114" stroke="#3D3958" stroke-width="1.8" stroke-linejoin="round"></path>
    <path d="M 278.3 215.2 Q 287.3 214.3 290 222.4 Q 282.8 224.2 275.6 227.8 Q 271.1 221.5 278.3 215.2 Z" fill="#5E3A22"></path>
    <ellipse cx="277.4" cy="219.7" rx="2.34" ry="1.44" fill="#8A5A34" opacity="0.8"></ellipse>
  </g><g transform="rotate(-22 196 236)">
    <path d="M 192.7 220.6 Q 205.9 219.5 210.3 231.6 Q 213.6 244.8 202.6 250.3 Q 189.4 253.6 181.7 242.6 Q 177.3 229.4 192.7 220.6 Z" fill="#3A2114" stroke="#3D3958" stroke-width="1.8" stroke-linejoin="round"></path>
    <path d="M 192.7 222.8 Q 203.7 221.7 207 231.6 Q 198.2 233.8 189.4 238.2 Q 183.9 230.5 192.7 222.8 Z" fill="#5E3A22"></path>
    <ellipse cx="191.6" cy="228.3" rx="2.86" ry="1.76" fill="#8A5A34" opacity="0.8"></ellipse>
  </g><g transform="rotate(18 251 256)">
    <path d="M 248 242 Q 260 241 264 252 Q 267 264 257 269 Q 245 272 238 262 Q 234 250 248 242 Z" fill="#3A2114" stroke="#3D3958" stroke-width="1.8" stroke-linejoin="round"></path>
    <path d="M 248 244 Q 258 243 261 252 Q 253 254 245 258 Q 240 251 248 244 Z" fill="#5E3A22"></path>
    <ellipse cx="247" cy="249" rx="2.6" ry="1.6" fill="#8A5A34" opacity="0.8"></ellipse>
  </g><g transform="rotate(-28 164 260)">
    <path d="M 160.55 243.9 Q 174.35 242.75 178.95 255.4 Q 182.4 269.2 170.9 274.95 Q 157.1 278.4 149.05 266.9 Q 144.45 253.1 160.55 243.9 Z" fill="#3A2114" stroke="#3D3958" stroke-width="1.8" stroke-linejoin="round"></path>
    <path d="M 160.55 246.2 Q 172.05 245.05 175.5 255.4 Q 166.3 257.7 157.1 262.3 Q 151.35 254.25 160.55 246.2 Z" fill="#5E3A22"></path>
    <ellipse cx="159.4" cy="251.95" rx="2.99" ry="1.84" fill="#8A5A34" opacity="0.8"></ellipse>
  </g><g transform="rotate(33 214 286)">
    <path d="M 211.45 274.1 Q 221.65 273.25 225.05 282.6 Q 227.6 292.8 219.1 297.05 Q 208.9 299.6 202.95 291.1 Q 199.55 280.9 211.45 274.1 Z" fill="#3A2114" stroke="#3D3958" stroke-width="1.8" stroke-linejoin="round"></path>
    <path d="M 211.45 275.8 Q 219.95 274.95 222.5 282.6 Q 215.7 284.3 208.9 287.7 Q 204.65 281.75 211.45 275.8 Z" fill="#5E3A22"></path>
    <ellipse cx="210.6" cy="280.05" rx="2.21" ry="1.36" fill="#8A5A34" opacity="0.8"></ellipse>
  </g><g transform="rotate(-40 120 166)">
    <path d="M 117.15 152.7 Q 128.55 151.75 132.35 162.2 Q 135.2 173.6 125.7 178.35 Q 114.3 181.2 107.65 171.7 Q 103.85 160.3 117.15 152.7 Z" fill="#3A2114" stroke="#3D3958" stroke-width="1.8" stroke-linejoin="round"></path>
    <path d="M 117.15 154.6 Q 126.65 153.65 129.5 162.2 Q 121.9 164.1 114.3 167.9 Q 109.55 161.25 117.15 154.6 Z" fill="#5E3A22"></path>
    <ellipse cx="116.2" cy="159.35" rx="2.47" ry="1.52" fill="#8A5A34" opacity="0.8"></ellipse>
  </g>
      <circle cx="200" cy="200" r="140" fill="none" stroke="#3D3958" stroke-width="6"></circle>
      <path d="M 545.28 205 L539.63 210.58 L539.72 216.18 L544.94 222.29 L546.08 228.25 L540.3 233.24 L535.72 238.14 L538.16 244.38 L541.71 251.14 L538.48 256.27 L531.36 260.03 L529.2 265.2 L532.39 272.46 L532.44 278.76 L525.85 282.1 L519.61 285.31 L519.7 291.69 L521.49 299.32 L517.55 303.72 L509.63 305.33 L505.53 309.28 L506.39 317 L505.18 323.45 L498.25 325.12 L491.03 326.16 L488.88 331.88 L488.64 339.85 L484.11 343.5 L476.07 342.88 L470.59 344.99 L469.09 352.4 L466.47 358.72 L459.63 358.84 L452.19 357.5 L448.2 361.8 L445.82 369.51 L440.77 372.39 L433.27 369.69 L427.16 369.57 L423.52 375.89 L419.42 381.72 L412.99 380.5 L406.12 376.84 L400.93 379.18 L396.52 385.95 L390.99 388.02 L384.56 383.55 L378.65 381.1 L373.37 385.71 L367.83 390.62 L362 388.28 L356.42 382.63 L350.82 382.72 L344.71 387.94 L338.75 389.08 L333.76 383.3 L328.86 378.72 L322.62 381.16 L315.86 384.71 L310.73 381.48 L306.97 374.36 L301.8 372.2 L294.54 375.39 L288.24 375.44 L284.9 368.85 L281.69 362.61 L275.31 362.7 L267.68 364.49 L263.28 360.55 L261.67 352.63 L257.72 348.53 L250 349.39 L243.55 348.18 L241.88 341.25 L240.84 334.03 L235.12 331.88 L227.15 331.64 L223.5 327.11 L224.12 319.07 L222.01 313.59 L214.6 312.09 L208.28 309.47 L208.16 302.63 L209.5 295.19 L205.2 291.2 L197.49 288.82 L194.61 283.77 L197.31 276.27 L197.43 270.16 L191.11 266.52 L185.28 262.42 L186.5 255.99 L190.16 249.12 L187.82 243.93 L181.05 239.52 L178.98 233.99 L183.45 227.56 L185.9 221.65 L181.29 216.37 L176.38 210.83 L178.72 205 L184.37 199.42 L184.28 193.82 L179.06 187.71 L177.92 181.75 L183.7 176.76 L188.28 171.86 L185.84 165.62 L182.29 158.86 L185.52 153.73 L192.64 149.97 L194.8 144.8 L191.61 137.54 L191.56 131.24 L198.15 127.9 L204.39 124.69 L204.3 118.31 L202.51 110.68 L206.45 106.28 L214.37 104.67 L218.47 100.72 L217.61 93 L218.82 86.55 L225.75 84.88 L232.97 83.84 L235.12 78.12 L235.36 70.15 L239.89 66.5 L247.93 67.12 L253.41 65.01 L254.91 57.6 L257.53 51.28 L264.37 51.16 L271.81 52.5 L275.8 48.2 L278.18 40.49 L283.23 37.61 L290.73 40.31 L296.84 40.43 L300.48 34.11 L304.58 28.28 L311.01 29.5 L317.88 33.16 L323.07 30.82 L327.48 24.05 L333.01 21.98 L339.44 26.45 L345.35 28.9 L350.63 24.29 L356.17 19.38 L362 21.72 L367.58 27.37 L373.18 27.28 L379.29 22.06 L385.25 20.92 L390.24 26.7 L395.14 31.28 L401.38 28.84 L408.14 25.29 L413.27 28.52 L417.03 35.64 L422.2 37.8 L429.46 34.61 L435.76 34.56 L439.1 41.15 L442.31 47.39 L448.69 47.3 L456.32 45.51 L460.72 49.45 L462.33 57.37 L466.28 61.47 L474 60.61 L480.45 61.82 L482.12 68.75 L483.16 75.97 L488.88 78.12 L496.85 78.36 L500.5 82.89 L499.88 90.93 L501.99 96.41 L509.4 97.91 L515.72 100.53 L515.84 107.37 L514.5 114.81 L518.8 118.8 L526.51 121.18 L529.39 126.23 L526.69 133.73 L526.57 139.84 L532.89 143.48 L538.72 147.58 L537.5 154.01 L533.84 160.88 L536.18 166.07 L542.95 170.48 L545.02 176.01 L540.55 182.44 L538.1 188.35 L542.71 193.63 L547.62 199.17 L545.28 205 Z" fill="none" stroke="#3D3958" stroke-width="4"></path>
    </g>
  </g>
  <g class="hm-piece" data-piece="2">
    <g clip-path="url(#ckBand2)">
      
      <circle cx="200" cy="200" r="140" fill="#DBA152"></circle>
      <circle cx="200" cy="200" r="137" fill="#E6B266"></circle>
      <circle cx="190" cy="186" r="96" fill="#EEBE76" opacity="0.65"></circle>
      <circle cx="170" cy="150" r="2.4" fill="#EFC074" opacity="0.55"></circle><circle cx="230" cy="160" r="2.4" fill="#C88A42" opacity="0.55"></circle><circle cx="255" cy="200" r="2.4" fill="#EFC074" opacity="0.55"></circle><circle cx="160" cy="210" r="2.4" fill="#C88A42" opacity="0.55"></circle><circle cx="205" cy="180" r="2.4" fill="#EFC074" opacity="0.55"></circle><circle cx="185" cy="255" r="2.4" fill="#C88A42" opacity="0.55"></circle><circle cx="240" cy="235" r="2.4" fill="#EFC074" opacity="0.55"></circle><circle cx="145" cy="175" r="2.4" fill="#C88A42" opacity="0.55"></circle><circle cx="270" cy="180" r="2.4" fill="#EFC074" opacity="0.55"></circle><circle cx="150" cy="240" r="2.4" fill="#C88A42" opacity="0.55"></circle><circle cx="225" cy="265" r="2.4" fill="#EFC074" opacity="0.55"></circle><circle cx="195" cy="135" r="2.4" fill="#C88A42" opacity="0.55"></circle>
      <g transform="rotate(15 150 142)">
    <path d="M 146.25 124.5 Q 161.25 123.25 166.25 137 Q 170 152 157.5 158.25 Q 142.5 162 133.75 149.5 Q 128.75 134.5 146.25 124.5 Z" fill="#3A2114" stroke="#3D3958" stroke-width="1.8" stroke-linejoin="round"></path>
    <path d="M 146.25 127 Q 158.75 125.75 162.5 137 Q 152.5 139.5 142.5 144.5 Q 136.25 135.75 146.25 127 Z" fill="#5E3A22"></path>
    <ellipse cx="145" cy="133.25" rx="3.25" ry="2" fill="#8A5A34" opacity="0.8"></ellipse>
  </g><g transform="rotate(-18 212 134)">
    <path d="M 209 120 Q 221 119 225 130 Q 228 142 218 147 Q 206 150 199 140 Q 195 128 209 120 Z" fill="#3A2114" stroke="#3D3958" stroke-width="1.8" stroke-linejoin="round"></path>
    <path d="M 209 122 Q 219 121 222 130 Q 214 132 206 136 Q 201 129 209 122 Z" fill="#5E3A22"></path>
    <ellipse cx="208" cy="127" rx="2.6" ry="1.6" fill="#8A5A34" opacity="0.8"></ellipse>
  </g><g transform="rotate(28 262 166)">
    <path d="M 258.55 149.9 Q 272.35 148.75 276.95 161.4 Q 280.4 175.2 268.9 180.95 Q 255.1 184.4 247.05 172.9 Q 242.45 159.1 258.55 149.9 Z" fill="#3A2114" stroke="#3D3958" stroke-width="1.8" stroke-linejoin="round"></path>
    <path d="M 258.55 152.2 Q 270.05 151.05 273.5 161.4 Q 264.3 163.7 255.1 168.3 Q 249.35 160.25 258.55 152.2 Z" fill="#5E3A22"></path>
    <ellipse cx="257.4" cy="157.95" rx="2.99" ry="1.84" fill="#8A5A34" opacity="0.8"></ellipse>
  </g><g transform="rotate(-30 176 182)">
    <path d="M 173.45 170.1 Q 183.65 169.25 187.05 178.6 Q 189.6 188.8 181.1 193.05 Q 170.9 195.6 164.95 187.1 Q 161.55 176.9 173.45 170.1 Z" fill="#3A2114" stroke="#3D3958" stroke-width="1.8" stroke-linejoin="round"></path>
    <path d="M 173.45 171.8 Q 181.95 170.95 184.5 178.6 Q 177.7 180.3 170.9 183.7 Q 166.65 177.75 173.45 171.8 Z" fill="#5E3A22"></path>
    <ellipse cx="172.6" cy="176.05" rx="2.21" ry="1.36" fill="#8A5A34" opacity="0.8"></ellipse>
  </g><g transform="rotate(10 232 202)">
    <path d="M 228.4 185.2 Q 242.8 184 247.6 197.2 Q 251.2 211.6 239.2 217.6 Q 224.8 221.2 216.4 209.2 Q 211.6 194.8 228.4 185.2 Z" fill="#3A2114" stroke="#3D3958" stroke-width="1.8" stroke-linejoin="round"></path>
    <path d="M 228.4 187.6 Q 240.4 186.4 244 197.2 Q 234.4 199.6 224.8 204.4 Q 218.8 196 228.4 187.6 Z" fill="#5E3A22"></path>
    <ellipse cx="227.2" cy="193.6" rx="3.12" ry="1.92" fill="#8A5A34" opacity="0.8"></ellipse>
  </g><g transform="rotate(-12 138 206)">
    <path d="M 135 192 Q 147 191 151 202 Q 154 214 144 219 Q 132 222 125 212 Q 121 200 135 192 Z" fill="#3A2114" stroke="#3D3958" stroke-width="1.8" stroke-linejoin="round"></path>
    <path d="M 135 194 Q 145 193 148 202 Q 140 204 132 208 Q 127 201 135 194 Z" fill="#5E3A22"></path>
    <ellipse cx="134" cy="199" rx="2.6" ry="1.6" fill="#8A5A34" opacity="0.8"></ellipse>
  </g><g transform="rotate(40 281 226)">
    <path d="M 278.3 213.4 Q 289.1 212.5 292.7 222.4 Q 295.4 233.2 286.4 237.7 Q 275.6 240.4 269.3 231.4 Q 265.7 220.6 278.3 213.4 Z" fill="#3A2114" stroke="#3D3958" stroke-width="1.8" stroke-linejoin="round"></path>
    <path d="M 278.3 215.2 Q 287.3 214.3 290 222.4 Q 282.8 224.2 275.6 227.8 Q 271.1 221.5 278.3 215.2 Z" fill="#5E3A22"></path>
    <ellipse cx="277.4" cy="219.7" rx="2.34" ry="1.44" fill="#8A5A34" opacity="0.8"></ellipse>
  </g><g transform="rotate(-22 196 236)">
    <path d="M 192.7 220.6 Q 205.9 219.5 210.3 231.6 Q 213.6 244.8 202.6 250.3 Q 189.4 253.6 181.7 242.6 Q 177.3 229.4 192.7 220.6 Z" fill="#3A2114" stroke="#3D3958" stroke-width="1.8" stroke-linejoin="round"></path>
    <path d="M 192.7 222.8 Q 203.7 221.7 207 231.6 Q 198.2 233.8 189.4 238.2 Q 183.9 230.5 192.7 222.8 Z" fill="#5E3A22"></path>
    <ellipse cx="191.6" cy="228.3" rx="2.86" ry="1.76" fill="#8A5A34" opacity="0.8"></ellipse>
  </g><g transform="rotate(18 251 256)">
    <path d="M 248 242 Q 260 241 264 252 Q 267 264 257 269 Q 245 272 238 262 Q 234 250 248 242 Z" fill="#3A2114" stroke="#3D3958" stroke-width="1.8" stroke-linejoin="round"></path>
    <path d="M 248 244 Q 258 243 261 252 Q 253 254 245 258 Q 240 251 248 244 Z" fill="#5E3A22"></path>
    <ellipse cx="247" cy="249" rx="2.6" ry="1.6" fill="#8A5A34" opacity="0.8"></ellipse>
  </g><g transform="rotate(-28 164 260)">
    <path d="M 160.55 243.9 Q 174.35 242.75 178.95 255.4 Q 182.4 269.2 170.9 274.95 Q 157.1 278.4 149.05 266.9 Q 144.45 253.1 160.55 243.9 Z" fill="#3A2114" stroke="#3D3958" stroke-width="1.8" stroke-linejoin="round"></path>
    <path d="M 160.55 246.2 Q 172.05 245.05 175.5 255.4 Q 166.3 257.7 157.1 262.3 Q 151.35 254.25 160.55 246.2 Z" fill="#5E3A22"></path>
    <ellipse cx="159.4" cy="251.95" rx="2.99" ry="1.84" fill="#8A5A34" opacity="0.8"></ellipse>
  </g><g transform="rotate(33 214 286)">
    <path d="M 211.45 274.1 Q 221.65 273.25 225.05 282.6 Q 227.6 292.8 219.1 297.05 Q 208.9 299.6 202.95 291.1 Q 199.55 280.9 211.45 274.1 Z" fill="#3A2114" stroke="#3D3958" stroke-width="1.8" stroke-linejoin="round"></path>
    <path d="M 211.45 275.8 Q 219.95 274.95 222.5 282.6 Q 215.7 284.3 208.9 287.7 Q 204.65 281.75 211.45 275.8 Z" fill="#5E3A22"></path>
    <ellipse cx="210.6" cy="280.05" rx="2.21" ry="1.36" fill="#8A5A34" opacity="0.8"></ellipse>
  </g><g transform="rotate(-40 120 166)">
    <path d="M 117.15 152.7 Q 128.55 151.75 132.35 162.2 Q 135.2 173.6 125.7 178.35 Q 114.3 181.2 107.65 171.7 Q 103.85 160.3 117.15 152.7 Z" fill="#3A2114" stroke="#3D3958" stroke-width="1.8" stroke-linejoin="round"></path>
    <path d="M 117.15 154.6 Q 126.65 153.65 129.5 162.2 Q 121.9 164.1 114.3 167.9 Q 109.55 161.25 117.15 154.6 Z" fill="#5E3A22"></path>
    <ellipse cx="116.2" cy="159.35" rx="2.47" ry="1.52" fill="#8A5A34" opacity="0.8"></ellipse>
  </g>
      <circle cx="200" cy="200" r="140" fill="none" stroke="#3D3958" stroke-width="6"></circle>
      <path d="M 512.55 205 L507.91 209.59 L503.43 213.9 L506.04 218.62 L510.87 223.81 L509.27 228.33 L502.83 231.87 L500.75 236.01 L504.83 241.67 L506.66 247.03 L501.37 250.28 L495.45 253.04 L496.03 258.07 L499.43 264.47 L497.28 268.66 L490.16 270.3 L486.39 273.38 L488.45 279.78 L489.21 285.73 L483.67 287.68 L476.89 288.48 L475.52 293.06 L477.09 300.21 L474.41 304.1 L467.22 303.81 L462.25 305.25 L462.18 311.68 L461.6 317.98 L456.11 318.76 L449.2 317.41 L446.18 320.87 L445.72 328.2 L442.46 331.78 L435.74 329.69 L430.26 329.16 L428.18 334.89 L426.08 341.17 L420.84 340.98 L414.49 337.57 L410.38 339.37 L407.89 346.22 L403.96 349.41 L398.16 345.85 L392.9 343.25 L389.21 347.65 L385.51 353.46 L380.63 352.49 L375.45 347.32 L370.95 347.18 L366.65 352.92 L362 355.55 L357.41 350.91 L353.1 346.43 L348.38 349.04 L343.19 353.87 L338.67 352.27 L335.13 345.83 L330.99 343.75 L325.33 347.83 L319.97 349.66 L316.72 344.37 L313.96 338.45 L308.93 339.03 L302.53 342.43 L298.34 340.28 L296.7 333.16 L293.62 329.39 L287.22 331.45 L281.27 332.21 L279.32 326.67 L278.52 319.89 L273.94 318.52 L266.79 320.09 L262.9 317.41 L263.19 310.22 L261.75 305.25 L255.32 305.18 L249.02 304.6 L248.24 299.11 L249.59 292.2 L246.13 289.18 L238.8 288.72 L235.22 285.46 L237.31 278.74 L237.84 273.26 L232.11 271.18 L225.83 269.08 L226.02 263.84 L229.43 257.49 L227.63 253.38 L220.78 250.89 L217.59 246.96 L221.15 241.16 L223.75 235.9 L219.35 232.21 L213.54 228.51 L214.51 223.63 L219.68 218.45 L219.82 213.95 L214.08 209.65 L211.45 205 L216.09 200.41 L220.57 196.1 L217.96 191.38 L213.13 186.19 L214.73 181.67 L221.17 178.13 L223.25 173.99 L219.17 168.33 L217.34 162.97 L222.63 159.72 L228.55 156.96 L227.97 151.93 L224.57 145.53 L226.72 141.34 L233.84 139.7 L237.61 136.62 L235.55 130.22 L234.79 124.27 L240.33 122.32 L247.11 121.52 L248.48 116.94 L246.91 109.79 L249.59 105.9 L256.78 106.19 L261.75 104.75 L261.82 98.32 L262.4 92.02 L267.89 91.24 L274.8 92.59 L277.82 89.13 L278.28 81.8 L281.54 78.22 L288.26 80.31 L293.74 80.84 L295.82 75.11 L297.92 68.83 L303.16 69.02 L309.51 72.43 L313.62 70.63 L316.11 63.78 L320.04 60.59 L325.84 64.15 L331.1 66.75 L334.79 62.35 L338.49 56.54 L343.37 57.51 L348.55 62.68 L353.05 62.82 L357.35 57.08 L362 54.45 L366.59 59.09 L370.9 63.57 L375.62 60.96 L380.81 56.13 L385.33 57.73 L388.87 64.17 L393.01 66.25 L398.67 62.17 L404.03 60.34 L407.28 65.63 L410.04 71.55 L415.07 70.97 L421.47 67.57 L425.66 69.72 L427.3 76.84 L430.38 80.61 L436.78 78.55 L442.73 77.79 L444.68 83.33 L445.48 90.11 L450.06 91.48 L457.21 89.91 L461.1 92.59 L460.81 99.78 L462.25 104.75 L468.68 104.82 L474.98 105.4 L475.76 110.89 L474.41 117.8 L477.87 120.82 L485.2 121.28 L488.78 124.54 L486.69 131.26 L486.16 136.74 L491.89 138.82 L498.17 140.92 L497.98 146.16 L494.57 152.51 L496.37 156.62 L503.22 159.11 L506.41 163.04 L502.85 168.84 L500.25 174.1 L504.65 177.79 L510.46 181.49 L509.49 186.37 L504.32 191.55 L504.18 196.05 L509.92 200.35 L512.55 205 Z" fill="none" stroke="#3D3958" stroke-width="4"></path>
    </g>
  </g>
  <g class="hm-piece" data-piece="1">
    <g clip-path="url(#ckBand1)">
      
      <circle cx="200" cy="200" r="140" fill="#DBA152"></circle>
      <circle cx="200" cy="200" r="137" fill="#E6B266"></circle>
      <circle cx="190" cy="186" r="96" fill="#EEBE76" opacity="0.65"></circle>
      <circle cx="170" cy="150" r="2.4" fill="#EFC074" opacity="0.55"></circle><circle cx="230" cy="160" r="2.4" fill="#C88A42" opacity="0.55"></circle><circle cx="255" cy="200" r="2.4" fill="#EFC074" opacity="0.55"></circle><circle cx="160" cy="210" r="2.4" fill="#C88A42" opacity="0.55"></circle><circle cx="205" cy="180" r="2.4" fill="#EFC074" opacity="0.55"></circle><circle cx="185" cy="255" r="2.4" fill="#C88A42" opacity="0.55"></circle><circle cx="240" cy="235" r="2.4" fill="#EFC074" opacity="0.55"></circle><circle cx="145" cy="175" r="2.4" fill="#C88A42" opacity="0.55"></circle><circle cx="270" cy="180" r="2.4" fill="#EFC074" opacity="0.55"></circle><circle cx="150" cy="240" r="2.4" fill="#C88A42" opacity="0.55"></circle><circle cx="225" cy="265" r="2.4" fill="#EFC074" opacity="0.55"></circle><circle cx="195" cy="135" r="2.4" fill="#C88A42" opacity="0.55"></circle>
      <g transform="rotate(15 150 142)">
    <path d="M 146.25 124.5 Q 161.25 123.25 166.25 137 Q 170 152 157.5 158.25 Q 142.5 162 133.75 149.5 Q 128.75 134.5 146.25 124.5 Z" fill="#3A2114" stroke="#3D3958" stroke-width="1.8" stroke-linejoin="round"></path>
    <path d="M 146.25 127 Q 158.75 125.75 162.5 137 Q 152.5 139.5 142.5 144.5 Q 136.25 135.75 146.25 127 Z" fill="#5E3A22"></path>
    <ellipse cx="145" cy="133.25" rx="3.25" ry="2" fill="#8A5A34" opacity="0.8"></ellipse>
  </g><g transform="rotate(-18 212 134)">
    <path d="M 209 120 Q 221 119 225 130 Q 228 142 218 147 Q 206 150 199 140 Q 195 128 209 120 Z" fill="#3A2114" stroke="#3D3958" stroke-width="1.8" stroke-linejoin="round"></path>
    <path d="M 209 122 Q 219 121 222 130 Q 214 132 206 136 Q 201 129 209 122 Z" fill="#5E3A22"></path>
    <ellipse cx="208" cy="127" rx="2.6" ry="1.6" fill="#8A5A34" opacity="0.8"></ellipse>
  </g><g transform="rotate(28 262 166)">
    <path d="M 258.55 149.9 Q 272.35 148.75 276.95 161.4 Q 280.4 175.2 268.9 180.95 Q 255.1 184.4 247.05 172.9 Q 242.45 159.1 258.55 149.9 Z" fill="#3A2114" stroke="#3D3958" stroke-width="1.8" stroke-linejoin="round"></path>
    <path d="M 258.55 152.2 Q 270.05 151.05 273.5 161.4 Q 264.3 163.7 255.1 168.3 Q 249.35 160.25 258.55 152.2 Z" fill="#5E3A22"></path>
    <ellipse cx="257.4" cy="157.95" rx="2.99" ry="1.84" fill="#8A5A34" opacity="0.8"></ellipse>
  </g><g transform="rotate(-30 176 182)">
    <path d="M 173.45 170.1 Q 183.65 169.25 187.05 178.6 Q 189.6 188.8 181.1 193.05 Q 170.9 195.6 164.95 187.1 Q 161.55 176.9 173.45 170.1 Z" fill="#3A2114" stroke="#3D3958" stroke-width="1.8" stroke-linejoin="round"></path>
    <path d="M 173.45 171.8 Q 181.95 170.95 184.5 178.6 Q 177.7 180.3 170.9 183.7 Q 166.65 177.75 173.45 171.8 Z" fill="#5E3A22"></path>
    <ellipse cx="172.6" cy="176.05" rx="2.21" ry="1.36" fill="#8A5A34" opacity="0.8"></ellipse>
  </g><g transform="rotate(10 232 202)">
    <path d="M 228.4 185.2 Q 242.8 184 247.6 197.2 Q 251.2 211.6 239.2 217.6 Q 224.8 221.2 216.4 209.2 Q 211.6 194.8 228.4 185.2 Z" fill="#3A2114" stroke="#3D3958" stroke-width="1.8" stroke-linejoin="round"></path>
    <path d="M 228.4 187.6 Q 240.4 186.4 244 197.2 Q 234.4 199.6 224.8 204.4 Q 218.8 196 228.4 187.6 Z" fill="#5E3A22"></path>
    <ellipse cx="227.2" cy="193.6" rx="3.12" ry="1.92" fill="#8A5A34" opacity="0.8"></ellipse>
  </g><g transform="rotate(-12 138 206)">
    <path d="M 135 192 Q 147 191 151 202 Q 154 214 144 219 Q 132 222 125 212 Q 121 200 135 192 Z" fill="#3A2114" stroke="#3D3958" stroke-width="1.8" stroke-linejoin="round"></path>
    <path d="M 135 194 Q 145 193 148 202 Q 140 204 132 208 Q 127 201 135 194 Z" fill="#5E3A22"></path>
    <ellipse cx="134" cy="199" rx="2.6" ry="1.6" fill="#8A5A34" opacity="0.8"></ellipse>
  </g><g transform="rotate(40 281 226)">
    <path d="M 278.3 213.4 Q 289.1 212.5 292.7 222.4 Q 295.4 233.2 286.4 237.7 Q 275.6 240.4 269.3 231.4 Q 265.7 220.6 278.3 213.4 Z" fill="#3A2114" stroke="#3D3958" stroke-width="1.8" stroke-linejoin="round"></path>
    <path d="M 278.3 215.2 Q 287.3 214.3 290 222.4 Q 282.8 224.2 275.6 227.8 Q 271.1 221.5 278.3 215.2 Z" fill="#5E3A22"></path>
    <ellipse cx="277.4" cy="219.7" rx="2.34" ry="1.44" fill="#8A5A34" opacity="0.8"></ellipse>
  </g><g transform="rotate(-22 196 236)">
    <path d="M 192.7 220.6 Q 205.9 219.5 210.3 231.6 Q 213.6 244.8 202.6 250.3 Q 189.4 253.6 181.7 242.6 Q 177.3 229.4 192.7 220.6 Z" fill="#3A2114" stroke="#3D3958" stroke-width="1.8" stroke-linejoin="round"></path>
    <path d="M 192.7 222.8 Q 203.7 221.7 207 231.6 Q 198.2 233.8 189.4 238.2 Q 183.9 230.5 192.7 222.8 Z" fill="#5E3A22"></path>
    <ellipse cx="191.6" cy="228.3" rx="2.86" ry="1.76" fill="#8A5A34" opacity="0.8"></ellipse>
  </g><g transform="rotate(18 251 256)">
    <path d="M 248 242 Q 260 241 264 252 Q 267 264 257 269 Q 245 272 238 262 Q 234 250 248 242 Z" fill="#3A2114" stroke="#3D3958" stroke-width="1.8" stroke-linejoin="round"></path>
    <path d="M 248 244 Q 258 243 261 252 Q 253 254 245 258 Q 240 251 248 244 Z" fill="#5E3A22"></path>
    <ellipse cx="247" cy="249" rx="2.6" ry="1.6" fill="#8A5A34" opacity="0.8"></ellipse>
  </g><g transform="rotate(-28 164 260)">
    <path d="M 160.55 243.9 Q 174.35 242.75 178.95 255.4 Q 182.4 269.2 170.9 274.95 Q 157.1 278.4 149.05 266.9 Q 144.45 253.1 160.55 243.9 Z" fill="#3A2114" stroke="#3D3958" stroke-width="1.8" stroke-linejoin="round"></path>
    <path d="M 160.55 246.2 Q 172.05 245.05 175.5 255.4 Q 166.3 257.7 157.1 262.3 Q 151.35 254.25 160.55 246.2 Z" fill="#5E3A22"></path>
    <ellipse cx="159.4" cy="251.95" rx="2.99" ry="1.84" fill="#8A5A34" opacity="0.8"></ellipse>
  </g><g transform="rotate(33 214 286)">
    <path d="M 211.45 274.1 Q 221.65 273.25 225.05 282.6 Q 227.6 292.8 219.1 297.05 Q 208.9 299.6 202.95 291.1 Q 199.55 280.9 211.45 274.1 Z" fill="#3A2114" stroke="#3D3958" stroke-width="1.8" stroke-linejoin="round"></path>
    <path d="M 211.45 275.8 Q 219.95 274.95 222.5 282.6 Q 215.7 284.3 208.9 287.7 Q 204.65 281.75 211.45 275.8 Z" fill="#5E3A22"></path>
    <ellipse cx="210.6" cy="280.05" rx="2.21" ry="1.36" fill="#8A5A34" opacity="0.8"></ellipse>
  </g><g transform="rotate(-40 120 166)">
    <path d="M 117.15 152.7 Q 128.55 151.75 132.35 162.2 Q 135.2 173.6 125.7 178.35 Q 114.3 181.2 107.65 171.7 Q 103.85 160.3 117.15 152.7 Z" fill="#3A2114" stroke="#3D3958" stroke-width="1.8" stroke-linejoin="round"></path>
    <path d="M 117.15 154.6 Q 126.65 153.65 129.5 162.2 Q 121.9 164.1 114.3 167.9 Q 109.55 161.25 117.15 154.6 Z" fill="#5E3A22"></path>
    <ellipse cx="116.2" cy="159.35" rx="2.47" ry="1.52" fill="#8A5A34" opacity="0.8"></ellipse>
  </g>
      <circle cx="200" cy="200" r="140" fill="none" stroke="#3D3958" stroke-width="6"></circle>
      <path d="M 469.91 205 L469.74 208.39 L463.94 211.41 L461.69 214.42 L466.21 218.17 L469.54 222.03 L465.55 224.75 L459.86 226.87 L460.62 230.32 L465.26 235 L464.84 238.42 L458.58 239.77 L454.96 241.81 L457.89 246.49 L460.47 251.33 L456.41 253.1 L450.1 253.44 L449.26 256.6 L452.43 262.39 L451.67 265.94 L445.47 265.65 L440.94 266.23 L442.07 271.24 L443.53 276.88 L439.62 277.89 L433.32 276.32 L431.12 278.61 L432.52 284.99 L431.25 288.71 L425.58 286.96 L420.71 285.81 L420.1 290.48 L420.14 296.61 L416.45 297.06 L410.77 293.72 L407.69 294.67 L407.19 301.03 L405.21 304.84 L400.39 301.97 L395.86 299.04 L393.77 302.78 L392.2 308.94 L388.71 309.03 L384.18 304.22 L380.8 303.58 L378.52 309.29 L375.65 313.01 L371.87 309.39 L368.28 304.88 L365.21 307.25 L362 312.91 L358.61 312.74 L355.59 306.94 L352.58 304.69 L348.83 309.21 L344.97 312.54 L342.25 308.55 L340.13 302.86 L336.68 303.62 L332 308.26 L328.58 307.84 L327.23 301.58 L325.19 297.96 L320.51 300.89 L315.67 303.47 L313.9 299.41 L313.56 293.1 L310.4 292.26 L304.61 295.43 L301.06 294.67 L301.35 288.47 L300.77 283.94 L295.76 285.07 L290.12 286.53 L289.11 282.62 L290.68 276.32 L288.39 274.12 L282.01 275.52 L278.29 274.25 L280.04 268.58 L281.19 263.71 L276.52 263.1 L270.39 263.14 L269.94 259.45 L273.28 253.77 L272.33 250.69 L265.97 250.19 L262.16 248.21 L265.03 243.39 L267.96 238.86 L264.22 236.77 L258.06 235.2 L257.97 231.71 L262.78 227.18 L263.42 223.8 L257.71 221.52 L253.99 218.65 L257.61 214.87 L262.12 211.28 L259.75 208.21 L254.09 205 L254.26 201.61 L260.06 198.59 L262.31 195.58 L257.79 191.83 L254.46 187.97 L258.45 185.25 L264.14 183.13 L263.38 179.68 L258.74 175 L259.16 171.58 L265.42 170.23 L269.04 168.19 L266.11 163.51 L263.53 158.67 L267.59 156.9 L273.9 156.56 L274.74 153.4 L271.57 147.61 L272.33 144.06 L278.53 144.35 L283.06 143.77 L281.93 138.76 L280.47 133.12 L284.38 132.11 L290.68 133.68 L292.88 131.39 L291.48 125.01 L292.75 121.29 L298.42 123.04 L303.29 124.19 L303.9 119.52 L303.86 113.39 L307.55 112.94 L313.23 116.28 L316.31 115.33 L316.81 108.97 L318.79 105.16 L323.61 108.03 L328.14 110.96 L330.23 107.22 L331.8 101.06 L335.29 100.97 L339.82 105.78 L343.2 106.42 L345.48 100.71 L348.35 96.99 L352.13 100.61 L355.72 105.12 L358.79 102.75 L362 97.09 L365.39 97.26 L368.41 103.06 L371.42 105.31 L375.17 100.79 L379.03 97.46 L381.75 101.45 L383.87 107.14 L387.32 106.38 L392 101.74 L395.42 102.16 L396.77 108.42 L398.81 112.04 L403.49 109.11 L408.33 106.53 L410.1 110.59 L410.44 116.9 L413.6 117.74 L419.39 114.57 L422.94 115.33 L422.65 121.53 L423.23 126.06 L428.24 124.93 L433.88 123.47 L434.89 127.38 L433.32 133.68 L435.61 135.88 L441.99 134.48 L445.71 135.75 L443.96 141.42 L442.81 146.29 L447.48 146.9 L453.61 146.86 L454.06 150.55 L450.72 156.23 L451.67 159.31 L458.03 159.81 L461.84 161.79 L458.97 166.61 L456.04 171.14 L459.78 173.23 L465.94 174.8 L466.03 178.29 L461.22 182.82 L460.58 186.2 L466.29 188.48 L470.01 191.35 L466.39 195.13 L461.88 198.72 L464.25 201.79 L469.91 205 Z" fill="none" stroke="#3D3958" stroke-width="4"></path>
    </g>
  </g>
  <g class="hm-piece" data-piece="0">
    <g clip-path="url(#ckBand0)">
      
      <circle cx="200" cy="200" r="140" fill="#DBA152"></circle>
      <circle cx="200" cy="200" r="137" fill="#E6B266"></circle>
      <circle cx="190" cy="186" r="96" fill="#EEBE76" opacity="0.65"></circle>
      <circle cx="170" cy="150" r="2.4" fill="#EFC074" opacity="0.55"></circle><circle cx="230" cy="160" r="2.4" fill="#C88A42" opacity="0.55"></circle><circle cx="255" cy="200" r="2.4" fill="#EFC074" opacity="0.55"></circle><circle cx="160" cy="210" r="2.4" fill="#C88A42" opacity="0.55"></circle><circle cx="205" cy="180" r="2.4" fill="#EFC074" opacity="0.55"></circle><circle cx="185" cy="255" r="2.4" fill="#C88A42" opacity="0.55"></circle><circle cx="240" cy="235" r="2.4" fill="#EFC074" opacity="0.55"></circle><circle cx="145" cy="175" r="2.4" fill="#C88A42" opacity="0.55"></circle><circle cx="270" cy="180" r="2.4" fill="#EFC074" opacity="0.55"></circle><circle cx="150" cy="240" r="2.4" fill="#C88A42" opacity="0.55"></circle><circle cx="225" cy="265" r="2.4" fill="#EFC074" opacity="0.55"></circle><circle cx="195" cy="135" r="2.4" fill="#C88A42" opacity="0.55"></circle>
      <g transform="rotate(15 150 142)">
    <path d="M 146.25 124.5 Q 161.25 123.25 166.25 137 Q 170 152 157.5 158.25 Q 142.5 162 133.75 149.5 Q 128.75 134.5 146.25 124.5 Z" fill="#3A2114" stroke="#3D3958" stroke-width="1.8" stroke-linejoin="round"></path>
    <path d="M 146.25 127 Q 158.75 125.75 162.5 137 Q 152.5 139.5 142.5 144.5 Q 136.25 135.75 146.25 127 Z" fill="#5E3A22"></path>
    <ellipse cx="145" cy="133.25" rx="3.25" ry="2" fill="#8A5A34" opacity="0.8"></ellipse>
  </g><g transform="rotate(-18 212 134)">
    <path d="M 209 120 Q 221 119 225 130 Q 228 142 218 147 Q 206 150 199 140 Q 195 128 209 120 Z" fill="#3A2114" stroke="#3D3958" stroke-width="1.8" stroke-linejoin="round"></path>
    <path d="M 209 122 Q 219 121 222 130 Q 214 132 206 136 Q 201 129 209 122 Z" fill="#5E3A22"></path>
    <ellipse cx="208" cy="127" rx="2.6" ry="1.6" fill="#8A5A34" opacity="0.8"></ellipse>
  </g><g transform="rotate(28 262 166)">
    <path d="M 258.55 149.9 Q 272.35 148.75 276.95 161.4 Q 280.4 175.2 268.9 180.95 Q 255.1 184.4 247.05 172.9 Q 242.45 159.1 258.55 149.9 Z" fill="#3A2114" stroke="#3D3958" stroke-width="1.8" stroke-linejoin="round"></path>
    <path d="M 258.55 152.2 Q 270.05 151.05 273.5 161.4 Q 264.3 163.7 255.1 168.3 Q 249.35 160.25 258.55 152.2 Z" fill="#5E3A22"></path>
    <ellipse cx="257.4" cy="157.95" rx="2.99" ry="1.84" fill="#8A5A34" opacity="0.8"></ellipse>
  </g><g transform="rotate(-30 176 182)">
    <path d="M 173.45 170.1 Q 183.65 169.25 187.05 178.6 Q 189.6 188.8 181.1 193.05 Q 170.9 195.6 164.95 187.1 Q 161.55 176.9 173.45 170.1 Z" fill="#3A2114" stroke="#3D3958" stroke-width="1.8" stroke-linejoin="round"></path>
    <path d="M 173.45 171.8 Q 181.95 170.95 184.5 178.6 Q 177.7 180.3 170.9 183.7 Q 166.65 177.75 173.45 171.8 Z" fill="#5E3A22"></path>
    <ellipse cx="172.6" cy="176.05" rx="2.21" ry="1.36" fill="#8A5A34" opacity="0.8"></ellipse>
  </g><g transform="rotate(10 232 202)">
    <path d="M 228.4 185.2 Q 242.8 184 247.6 197.2 Q 251.2 211.6 239.2 217.6 Q 224.8 221.2 216.4 209.2 Q 211.6 194.8 228.4 185.2 Z" fill="#3A2114" stroke="#3D3958" stroke-width="1.8" stroke-linejoin="round"></path>
    <path d="M 228.4 187.6 Q 240.4 186.4 244 197.2 Q 234.4 199.6 224.8 204.4 Q 218.8 196 228.4 187.6 Z" fill="#5E3A22"></path>
    <ellipse cx="227.2" cy="193.6" rx="3.12" ry="1.92" fill="#8A5A34" opacity="0.8"></ellipse>
  </g><g transform="rotate(-12 138 206)">
    <path d="M 135 192 Q 147 191 151 202 Q 154 214 144 219 Q 132 222 125 212 Q 121 200 135 192 Z" fill="#3A2114" stroke="#3D3958" stroke-width="1.8" stroke-linejoin="round"></path>
    <path d="M 135 194 Q 145 193 148 202 Q 140 204 132 208 Q 127 201 135 194 Z" fill="#5E3A22"></path>
    <ellipse cx="134" cy="199" rx="2.6" ry="1.6" fill="#8A5A34" opacity="0.8"></ellipse>
  </g><g transform="rotate(40 281 226)">
    <path d="M 278.3 213.4 Q 289.1 212.5 292.7 222.4 Q 295.4 233.2 286.4 237.7 Q 275.6 240.4 269.3 231.4 Q 265.7 220.6 278.3 213.4 Z" fill="#3A2114" stroke="#3D3958" stroke-width="1.8" stroke-linejoin="round"></path>
    <path d="M 278.3 215.2 Q 287.3 214.3 290 222.4 Q 282.8 224.2 275.6 227.8 Q 271.1 221.5 278.3 215.2 Z" fill="#5E3A22"></path>
    <ellipse cx="277.4" cy="219.7" rx="2.34" ry="1.44" fill="#8A5A34" opacity="0.8"></ellipse>
  </g><g transform="rotate(-22 196 236)">
    <path d="M 192.7 220.6 Q 205.9 219.5 210.3 231.6 Q 213.6 244.8 202.6 250.3 Q 189.4 253.6 181.7 242.6 Q 177.3 229.4 192.7 220.6 Z" fill="#3A2114" stroke="#3D3958" stroke-width="1.8" stroke-linejoin="round"></path>
    <path d="M 192.7 222.8 Q 203.7 221.7 207 231.6 Q 198.2 233.8 189.4 238.2 Q 183.9 230.5 192.7 222.8 Z" fill="#5E3A22"></path>
    <ellipse cx="191.6" cy="228.3" rx="2.86" ry="1.76" fill="#8A5A34" opacity="0.8"></ellipse>
  </g><g transform="rotate(18 251 256)">
    <path d="M 248 242 Q 260 241 264 252 Q 267 264 257 269 Q 245 272 238 262 Q 234 250 248 242 Z" fill="#3A2114" stroke="#3D3958" stroke-width="1.8" stroke-linejoin="round"></path>
    <path d="M 248 244 Q 258 243 261 252 Q 253 254 245 258 Q 240 251 248 244 Z" fill="#5E3A22"></path>
    <ellipse cx="247" cy="249" rx="2.6" ry="1.6" fill="#8A5A34" opacity="0.8"></ellipse>
  </g><g transform="rotate(-28 164 260)">
    <path d="M 160.55 243.9 Q 174.35 242.75 178.95 255.4 Q 182.4 269.2 170.9 274.95 Q 157.1 278.4 149.05 266.9 Q 144.45 253.1 160.55 243.9 Z" fill="#3A2114" stroke="#3D3958" stroke-width="1.8" stroke-linejoin="round"></path>
    <path d="M 160.55 246.2 Q 172.05 245.05 175.5 255.4 Q 166.3 257.7 157.1 262.3 Q 151.35 254.25 160.55 246.2 Z" fill="#5E3A22"></path>
    <ellipse cx="159.4" cy="251.95" rx="2.99" ry="1.84" fill="#8A5A34" opacity="0.8"></ellipse>
  </g><g transform="rotate(33 214 286)">
    <path d="M 211.45 274.1 Q 221.65 273.25 225.05 282.6 Q 227.6 292.8 219.1 297.05 Q 208.9 299.6 202.95 291.1 Q 199.55 280.9 211.45 274.1 Z" fill="#3A2114" stroke="#3D3958" stroke-width="1.8" stroke-linejoin="round"></path>
    <path d="M 211.45 275.8 Q 219.95 274.95 222.5 282.6 Q 215.7 284.3 208.9 287.7 Q 204.65 281.75 211.45 275.8 Z" fill="#5E3A22"></path>
    <ellipse cx="210.6" cy="280.05" rx="2.21" ry="1.36" fill="#8A5A34" opacity="0.8"></ellipse>
  </g><g transform="rotate(-40 120 166)">
    <path d="M 117.15 152.7 Q 128.55 151.75 132.35 162.2 Q 135.2 173.6 125.7 178.35 Q 114.3 181.2 107.65 171.7 Q 103.85 160.3 117.15 152.7 Z" fill="#3A2114" stroke="#3D3958" stroke-width="1.8" stroke-linejoin="round"></path>
    <path d="M 117.15 154.6 Q 126.65 153.65 129.5 162.2 Q 121.9 164.1 114.3 167.9 Q 109.55 161.25 117.15 154.6 Z" fill="#5E3A22"></path>
    <ellipse cx="116.2" cy="159.35" rx="2.47" ry="1.52" fill="#8A5A34" opacity="0.8"></ellipse>
  </g>
      <circle cx="200" cy="200" r="140" fill="none" stroke="#3D3958" stroke-width="6"></circle>
      
    </g>
  </g>
  </g>
</svg>