<svg xmlns="http://www.w3.org/2000/svg" viewBox="0 0 400 400" width="400" height="400">
  <ellipse cx="200" cy="352" rx="150" ry="22" fill="#EAE4F7" stroke="#3D3958" stroke-width="3"></ellipse>
  <path d="M82 258 L82 320 Q82 338 100 338 L300 338 Q318 338 318 320 L318 258 Z" fill="#F48FB1" stroke="#3D3958" stroke-width="3" stroke-linejoin="round"></path>
  <rect x="82" y="290" width="236" height="14" fill="#F06292" opacity="0.55"></rect><path d="M70 250 Q70 230 92 230 L308 230 Q330 230 330 250 L330 256 Q 311.43 274 292.86 256 Q 274.29 274 255.71 256 Q 237.14 274 218.57 256 Q 200 274 181.43 256 Q 162.86 274 144.29 256 Q 125.71 274 107.14 256 Q 88.57 274 70 256 Z" fill="#FFF3E0" stroke="#3D3958" stroke-width="3" stroke-linejoin="round"></path><rect x="110" y="244" width="13" height="5" rx="2.5" fill="#FF6B6B" transform="rotate(20 116 246)"></rect><rect x="150" y="250" width="13" height="5" rx="2.5" fill="#4D96FF" transform="rotate(-25 156 252)"></rect><rect x="188" y="243" width="13" height="5" rx="2.5" fill="#6BCB77" transform="rotate(15 194 245)"></rect><rect x="228" y="250" width="13" height="5" rx="2.5" fill="#FFD93D" transform="rotate(-15 234 252)"></rect><rect x="266" y="244" width="13" height="5" rx="2.5" fill="#FF924C" transform="rotate(30 272 246)"></rect><rect x="300" y="250" width="13" height="5" rx="2.5" fill="#9B5DE5" transform="rotate(-20 306 252)"></rect><rect x="130" y="253" width="13" height="5" rx="2.5" fill="#FF6B6B" transform="rotate(40 136 255)"></rect><rect x="210" y="254" width="13" height="5" rx="2.5" fill="#4D96FF" transform="rotate(-35 216 256)"></rect><rect x="284" y="255" width="13" height="5" rx="2.5" fill="#6BCB77" transform="rotate(10 290 257)"></rect>
  <rect x="103" y="158" width="14" height="74" rx="5" fill="#FF6B6B" stroke="#3D3958" stroke-width="3"></rect>
  <path d="M103 178 L117 168 M103 196 L117 186 M103 214 L117 204" stroke="#ffffff" stroke-width="3" stroke-linecap="round" opacity="0.55"></path>
  <line x1="110" y1="158" x2="110" y2="148" stroke="#3D3958" stroke-width="3" stroke-linecap="round"></line>
  <rect x="139" y="158" width="14" height="74" rx="5" fill="#4ECDC4" stroke="#3D3958" stroke-width="3"></rect>
  <path d="M139 178 L153 168 M139 196 L153 186 M139 214 L153 204" stroke="#ffffff" stroke-width="3" stroke-linecap="round" opacity="0.55"></path>
  <line x1="146" y1="158" x2="146" y2="148" stroke="#3D3958" stroke-width="3" stroke-linecap="round"></line>
  <rect x="175" y="158" width="14" height="74" rx="5" fill="#FFD93D" stroke="#3D3958" stroke-width="3"></rect>
  <path d="M175 178 L189 168 M175 196 L189 186 M175 214 L189 204" stroke="#ffffff" stroke-width="3" stroke-linecap="round" opacity="0.55"></path>
  <line x1="182" y1="158" x2="182" y2="148" stroke="#3D3958" stroke-width="3" stroke-linecap="round"></line>
  <rect x="211" y="158" width="14" height="74" rx="5" fill="#6BCB77" stroke="#3D3958" stroke-width="3"></rect>
  <path d="M211 178 L225 168 M211 196 L225 186 M211 214 L225 204" stroke="#ffffff" stroke-width="3" stroke-linecap="round" opacity="0.55"></path>
  <line x1="218" y1="158" x2="218" y2="148" stroke="#3D3958" stroke-width="3" stroke-linecap="round"></line>
  <rect x="247" y="158" width="14" height="74" rx="5" fill="#9B7EDE" stroke="#3D3958" stroke-width="3"></rect>
  <path d="M247 178 L261 168 M247 196 L261 186 M247 214 L261 204" stroke="#ffffff" stroke-width="3" stroke-linecap="round" opacity="0.55"></path>
  <line x1="254" y1="158" x2="254" y2="148" stroke="#3D3958" stroke-width="3" stroke-linecap="round"></line>
  <rect x="283" y="158" width="14" height="74" rx="5" fill="#FF9F68" stroke="#3D3958" stroke-width="3"></rect>
  <path d="M283 178 L297 168 M283 196 L297 186 M283 214 L297 204" stroke="#ffffff" stroke-width="3" stroke-linecap="round" opacity="0.55"></path>
  <line x1="290" y1="158" x2="290" y2="148" stroke="#3D3958" stroke-width="3" stroke-linecap="round"></line>
  <g class="hm-piece" data-piece="0">
    <path d="M110 116 C 123 130 121 149 110 149 C 99 149 97 130 110 116 Z" fill="#FF9F1C" stroke="#3D3958" stroke-width="3" stroke-linejoin="round"></path>
    <path d="M110 128 C 116 137 115 147 110 147 C 105 147 104 137 110 128 Z" fill="#FFE45E"></path>
  </g>
  <g class="hm-piece" data-piece="1">
    <path d="M146 116 C 159 130 157 149 146 149 C 135 149 133 130 146 116 Z" fill="#FF9F1C" stroke="#3D3958" stroke-width="3" stroke-linejoin="round"></path>
    <path d="M146 128 C 152 137 151 147 146 147 C 141 147 140 137 146 128 Z" fill="#FFE45E"></path>
  </g>
  <g class="hm-piece" data-piece="2">
    <path d="M182 116 C 195 130 193 149 182 149 C 171 149 169 130 182 116 Z" fill="#FF9F1C" stroke="#3D3958" stroke-width="3" stroke-linejoin="round"></path>
    <path d="M182 128 C 188 137 187 147 182 147 C 177 147 176 137 182 128 Z" fill="#FFE45E"></path>
  </g>
  <g class="hm-piece" data-piece="3">
    <path d="M218 116 C 231 130 229 149 218 149 C 207 149 205 130 218 116 Z" fill="#FF9F1C" stroke="#3D3958" stroke-width="3" stroke-linejoin="round"></path>
    <path d="M218 128 C 224 137 223 147 218 147 C 213 147 212 137 218 128 Z" fill="#FFE45E"></path>
  </g>
  <g class="hm-piece" data-piece="4">
    <path d="M254 116 C 267 130 265 149 254 149 C 243 149 241 130 254 116 Z" fill="#FF9F1C" stroke="#3D3958" stroke-width="3" stroke-linejoin="round"></path>
    <path d="M254 128 C 260 137 259 147 254 147 C 249 147 248 137 254 128 Z" fill="#FFE45E"></path>
  </g>
  <g class="hm-piece" data-piece="5">
    <path d="M290 116 C 303 130 301 149 290 149 C 279 149 277 130 290 116 Z" fill="#FF9F1C" stroke="#3D3958" stroke-width="3" stroke-linejoin="round"></path>
    <path d="M290 128 C 296 137 295 147 290 147 C 285 147 284 137 290 128 Z" fill="#FFE45E"></path>
  </g>
</svg>